<svg width="1237" height="704" viewBox="0 0 1237 704" fill="none" xmlns="http://www.w3.org/2000/svg">
<path d="M602.906 243.236C602.906 213.089 607.362 187.69 616.274 167.039C625.185 146.389 638.136 130.706 655.126 119.993C672.116 109.279 692.677 103.922 716.809 103.922C738.709 103.922 757.483 108.171 773.131 116.667C788.779 125.164 800.821 136.844 809.262 151.707C817.692 166.569 822.012 183.535 822.212 202.604H959.552C959.552 200.119 959.552 197.675 959.552 195.273C959.552 192.87 959.552 190.427 959.552 187.941C959.552 159.717 953.532 134.092 941.482 111.066C929.432 88.039 912.562 68.23 890.852 51.638C869.142 35.047 843.402 22.292 813.642 13.375C783.874 4.458 751.218 0 715.673 0C660.231 0 613.178 9.911 574.514 29.733C535.851 49.555 506.461 77.622 486.346 113.934C466.231 150.246 456.174 193.43 456.174 243.487" fill="#4D818C"/>
<path d="M456.174 298.424C456.174 348.047 466.231 390.989 486.346 427.249C506.461 463.509 535.851 491.524 574.514 511.295C613.178 531.065 660.231 540.95 715.673 540.95C762.96 540.95 804.962 533.21 841.672 517.73C878.392 502.25 907.212 480.672 928.152 452.997C949.082 425.321 959.552 393.191 959.552 356.606C959.552 354.12 959.552 351.594 959.552 349.026C959.552 346.459 959.552 343.932 959.552 341.447H822.212C822.012 359.803 817.692 376.189 809.262 390.605C800.821 405.022 788.779 416.363 773.131 424.629C757.483 432.895 738.709 437.028 716.809 437.028C692.677 437.028 672.116 431.715 655.126 421.091C638.136 410.467 625.185 394.897 616.274 374.379C607.362 353.862 602.906 328.791 602.906 299.165" fill="#4D818C"/>
<path d="M11.1796 556.601H5.86264V553.843H10.8496V551.679H5.86264V549.001H11.1796V546.653H2.93164V558.95H11.1796V556.601Z" fill="#162335"/>
<path d="M23.7024 546.653H20.3884L18.1834 550.802H18.0554L15.8384 546.653H12.3694L16.0384 552.758L12.3594 558.95H15.5274L17.8614 554.906H17.9834L20.3194 558.95H23.6654L19.8874 552.799L23.7024 546.653Z" fill="#162335"/>
<path d="M30.1607 546.653H24.9707V558.95H27.9257V555.134H30.1257C31.0717 555.134 31.8677 554.946 32.5117 554.57C33.1557 554.194 33.6417 553.687 33.9697 553.048C34.2977 552.409 34.4617 551.699 34.4617 550.917C34.4617 550.14 34.2997 549.429 33.9757 548.784C33.6517 548.138 33.1707 547.622 32.5347 547.234C31.8987 546.847 31.1077 546.653 30.1607 546.653ZM31.4617 550.917C31.4617 551.338 31.3817 551.697 31.2207 551.994C31.0597 552.291 30.8307 552.518 30.5337 552.674C30.2367 552.83 29.8837 552.908 29.4747 552.908H27.9137V548.925H29.4747C30.0867 548.925 30.5717 549.096 30.9277 549.436C31.2837 549.777 31.4617 550.27 31.4617 550.917Z" fill="#162335"/>
<path d="M44.5634 556.601H39.2464V553.843H44.2335V551.679H39.2464V549.001H44.5634V546.653H36.3145V558.95H44.5634V556.601Z" fill="#162335"/>
<path d="M52.1169 546.653H46.9219V558.95H49.8299V554.555H51.5329L53.6159 558.95H56.8929L54.4439 554.14C54.7639 554.009 55.0949 553.792 55.4349 553.49C55.7759 553.188 56.0629 552.802 56.2969 552.331C56.5309 551.86 56.6479 551.308 56.6479 550.676C56.6479 549.867 56.4729 549.16 56.1229 548.556C55.7739 547.952 55.2629 547.484 54.5899 547.151C53.9179 546.819 53.0939 546.653 52.1169 546.653ZM49.8299 552.458V548.873H51.6799C52.2249 548.873 52.6809 549.028 53.0459 549.338C53.4119 549.648 53.5949 550.102 53.5949 550.699C53.5949 551.288 53.4149 551.728 53.0549 552.02C52.6949 552.312 52.2279 552.458 51.6539 552.458H49.8299Z" fill="#162335"/>
<path d="M64.0473 558.95V549.074H67.3973V546.653H57.7363V549.074H61.0863V558.95H64.0473Z" fill="#162335"/>
<path d="M75.4018 552.134C75.4018 551.437 75.4958 550.847 75.6818 550.364C75.8678 549.882 76.1368 549.514 76.4868 549.261C76.8368 549.007 77.2578 548.881 77.7498 548.881C78.1788 548.881 78.5508 548.975 78.8648 549.165C79.1788 549.355 79.4248 549.615 79.6008 549.945C79.7778 550.275 79.8768 550.65 79.8978 551.07H82.7238C82.7238 551.011 82.7238 550.954 82.7238 550.897C82.7238 550.841 82.7238 550.783 82.7238 550.724C82.7068 550.078 82.5718 549.493 82.3178 548.967C82.0638 548.441 81.7148 547.989 81.2708 547.609C80.8268 547.23 80.3028 546.939 79.7008 546.737C79.0988 546.534 78.4398 546.432 77.7268 546.432C76.5868 546.432 75.6188 546.664 74.8218 547.128C74.0248 547.592 73.4188 548.25 73.0048 549.101C72.5898 549.952 72.3828 550.962 72.3828 552.131V553.497C72.3828 554.664 72.5888 555.672 73.0018 556.52C73.4138 557.368 74.0178 558.022 74.8138 558.484C75.6098 558.945 76.5808 559.176 77.7268 559.176C78.6778 559.176 79.5248 559 80.2688 558.646C81.0138 558.293 81.6028 557.8 82.0378 557.167C82.4718 556.534 82.7008 555.799 82.7238 554.963C82.7238 554.904 82.7238 554.845 82.7238 554.784C82.7238 554.724 82.7238 554.664 82.7238 554.605H79.8978C79.8768 555.013 79.7788 555.376 79.6028 555.696C79.4268 556.015 79.1828 556.267 78.8698 556.452C78.5568 556.636 78.1828 556.728 77.7498 556.728C77.2538 556.728 76.8308 556.604 76.4798 556.356C76.1298 556.108 75.8628 555.744 75.6788 555.265C75.4938 554.786 75.4018 554.2 75.4018 553.509V552.134Z" fill="#162335"/>
<path d="M92.3051 552.065V553.543C92.3051 554.254 92.2011 554.849 91.9941 555.329C91.7861 555.809 91.4991 556.169 91.1331 556.409C90.7671 556.649 90.3391 556.769 89.8511 556.769C89.3621 556.769 88.9341 556.649 88.5651 556.409C88.1971 556.169 87.9091 555.809 87.7021 555.329C87.4941 554.849 87.3901 554.254 87.3901 553.543V552.065C87.3901 551.353 87.4941 550.758 87.7021 550.281C87.9091 549.804 88.1971 549.444 88.5651 549.203C88.9341 548.961 89.3621 548.84 89.8511 548.84C90.3391 548.84 90.7671 548.961 91.1331 549.203C91.4991 549.444 91.7861 549.804 91.9941 550.281C92.2011 550.758 92.3051 551.353 92.3051 552.065ZM95.3241 553.532V552.101C95.3241 550.939 95.1101 549.936 94.6801 549.089C94.2501 548.243 93.6271 547.589 92.8121 547.126C91.9961 546.664 91.0091 546.432 89.8511 546.432C88.6961 546.432 87.7101 546.662 86.8921 547.121C86.0751 547.579 85.4501 548.233 85.0181 549.081C84.5871 549.929 84.3711 550.935 84.3711 552.101V553.532C84.3711 554.683 84.5871 555.682 85.0181 556.529C85.4501 557.376 86.0751 558.029 86.8921 558.488C87.7101 558.947 88.6961 559.176 89.8511 559.176C91.0091 559.176 91.9961 558.947 92.8121 558.488C93.6271 558.029 94.2501 557.376 94.6801 556.529C95.1101 555.682 95.3241 554.683 95.3241 553.532Z" fill="#162335"/>
<path d="M100.276 558.95V551.572H100.392L105.336 558.95H107.665V546.653H104.909V553.961H104.79L99.8655 546.653H97.5195V558.95H100.276Z" fill="#162335"/>
<path d="M115.577 558.95V549.074H118.927V546.653H109.266V549.074H112.616V558.95H115.577Z" fill="#162335"/>
<path d="M127.373 558.95V546.653H124.412V558.95H127.373Z" fill="#162335"/>
<path d="M132.82 558.95V551.572H132.936L137.88 558.95H140.209V546.653H137.453V553.961H137.334L132.41 546.653H130.064V558.95H132.82Z" fill="#162335"/>
<path d="M142.234 555.437C142.251 555.919 142.356 556.384 142.549 556.83C142.742 557.277 143.037 557.677 143.433 558.031C143.829 558.384 144.336 558.664 144.954 558.869C145.571 559.074 146.315 559.176 147.186 559.176C148.288 559.176 149.214 559.007 149.963 558.67C150.712 558.333 151.278 557.865 151.661 557.268C152.044 556.671 152.236 555.983 152.236 555.205C152.236 554.455 152.085 553.842 151.784 553.366C151.482 552.89 151.078 552.517 150.57 552.248C150.063 551.979 149.496 551.783 148.868 551.659L147.087 551.296C146.565 551.192 146.159 551.038 145.87 550.833C145.581 550.628 145.436 550.361 145.436 550.032C145.436 549.635 145.594 549.306 145.91 549.044C146.226 548.782 146.681 548.651 147.275 548.651C147.685 548.651 148.034 548.717 148.319 548.849C148.605 548.98 148.828 549.152 148.988 549.364C149.149 549.576 149.246 549.805 149.279 550.053H152.021C151.998 549.417 151.805 548.822 151.443 548.27C151.08 547.717 150.552 547.271 149.859 546.931C149.165 546.59 148.306 546.42 147.282 546.42C146.334 546.42 145.501 546.575 144.781 546.884C144.062 547.193 143.5 547.634 143.095 548.207C142.691 548.781 142.489 549.462 142.489 550.25C142.489 550.924 142.625 551.498 142.897 551.97C143.169 552.442 143.551 552.823 144.042 553.111C144.534 553.4 145.105 553.612 145.754 553.747L147.493 554.121C148.098 554.249 148.554 554.414 148.861 554.617C149.168 554.821 149.321 555.116 149.321 555.504C149.321 555.773 149.248 556.014 149.101 556.227C148.955 556.441 148.733 556.609 148.435 556.731C148.137 556.854 147.759 556.915 147.301 556.915C146.965 556.915 146.664 556.877 146.399 556.799C146.134 556.722 145.906 556.614 145.714 556.477C145.523 556.34 145.372 556.183 145.262 556.005C145.151 555.827 145.082 555.637 145.055 555.437H142.234Z" fill="#162335"/>
<path d="M161.786 552.065V553.543C161.786 554.254 161.682 554.849 161.475 555.329C161.267 555.809 160.98 556.169 160.614 556.409C160.248 556.649 159.82 556.769 159.332 556.769C158.843 556.769 158.415 556.649 158.047 556.409C157.679 556.169 157.391 555.809 157.183 555.329C156.975 554.849 156.871 554.254 156.871 553.543V552.065C156.871 551.353 156.975 550.758 157.183 550.281C157.391 549.804 157.679 549.444 158.047 549.203C158.415 548.961 158.843 548.84 159.332 548.84C159.82 548.84 160.248 548.961 160.614 549.203C160.98 549.444 161.267 549.804 161.475 550.281C161.682 550.758 161.786 551.353 161.786 552.065ZM164.806 553.532V552.101C164.806 550.939 164.591 549.936 164.161 549.089C163.731 548.243 163.109 547.589 162.293 547.126C161.477 546.664 160.49 546.432 159.332 546.432C158.177 546.432 157.191 546.662 156.373 547.121C155.556 547.579 154.931 548.233 154.5 549.081C154.068 549.929 153.852 550.935 153.852 552.101V553.532C153.852 554.683 154.068 555.682 154.5 556.529C154.931 557.376 155.556 558.029 156.373 558.488C157.191 558.947 158.177 559.176 159.332 559.176C160.49 559.176 161.477 558.947 162.293 558.488C163.109 558.029 163.731 557.376 164.161 556.529C164.591 555.682 164.806 554.683 164.806 553.532Z" fill="#162335"/>
<path d="M174.902 556.478H169.959V546.653H166.998V558.95H174.902V556.478Z" fill="#162335"/>
<path d="M178.626 558.95H182.342L186.211 546.653H182.952L180.636 555.824H180.496L178.145 546.653H174.705L178.626 558.95Z" fill="#162335"/>
<path d="M195.978 556.601H190.661V553.843H195.648V551.679H190.661V549.001H195.978V546.653H187.73V558.95H195.978V556.601Z" fill="#162335"/>
<path d="M201.092 558.95V551.572H201.208L206.152 558.95H208.481V546.653H205.725V553.961H205.606L200.682 546.653H198.336V558.95H201.092Z" fill="#162335"/>
<path d="M213.694 552.134C213.694 551.437 213.787 550.847 213.973 550.364C214.16 549.882 214.428 549.514 214.778 549.261C215.128 549.007 215.55 548.881 216.041 548.881C216.471 548.881 216.842 548.975 217.157 549.165C217.471 549.355 217.716 549.615 217.893 549.945C218.069 550.275 218.168 550.65 218.189 551.07H221.015C221.015 551.011 221.015 550.954 221.015 550.897C221.015 550.841 221.015 550.783 221.015 550.724C220.999 550.078 220.863 549.493 220.609 548.967C220.355 548.441 220.006 547.989 219.562 547.609C219.118 547.23 218.595 546.939 217.992 546.737C217.39 546.534 216.732 546.432 216.018 546.432C214.878 546.432 213.91 546.664 213.113 547.128C212.316 547.592 211.711 548.25 211.296 549.101C210.882 549.952 210.674 550.962 210.674 552.131V553.497C210.674 554.664 210.881 555.672 211.293 556.52C211.705 557.368 212.31 558.022 213.105 558.484C213.901 558.945 214.872 559.176 216.018 559.176C216.969 559.176 217.817 559 218.561 558.646C219.305 558.293 219.894 557.8 220.329 557.167C220.763 556.534 220.992 555.799 221.015 554.963C221.015 554.904 221.015 554.845 221.015 554.784C221.015 554.724 221.015 554.664 221.015 554.605H218.189C218.168 555.013 218.07 555.376 217.894 555.696C217.719 556.015 217.474 556.267 217.161 556.452C216.848 556.636 216.475 556.728 216.041 556.728C215.545 556.728 215.122 556.604 214.772 556.356C214.422 556.108 214.154 555.744 213.97 555.265C213.786 554.786 213.694 554.2 213.694 553.509V552.134Z" fill="#162335"/>
<path d="M228.63 558.95V554.578L232.75 546.653H229.608L227.252 551.721H227.136L224.791 546.653H221.549L225.669 554.655V558.95H228.63Z" fill="#162335"/>
<path d="M103.971 530.066H426.099V428.828H151.43V309.945H409.047V216.668H151.43V101.238H426.099V0H87.0914H42.3984" fill="#4D818C"/>
<path d="M42.399 0H0V341.016V530.066H51.765" fill="#4D818C"/>
<path d="M187.928 701.652C199.289 700.732 210.817 699.242 222.513 697.172C234.208 695.102 245.903 692.512 257.598 689.412C269.293 686.312 281.072 682.742 292.934 678.722C304.797 674.702 316.325 670.442 327.519 665.962C338.713 661.482 352.664 655.502 369.371 648.032C386.078 640.562 417.321 625.561 463.1 603.033C508.878 580.504 543.546 563.895 567.104 553.206C590.661 542.516 610.209 534.068 625.747 527.861C641.285 521.655 654.149 516.77 664.341 513.206C674.533 509.643 686.562 505.793 700.429 501.655C714.296 497.517 726.994 494.069 738.522 491.31C750.05 488.552 761.495 486.138 772.856 484.069C784.217 482 791.735 480.793 795.411 480.448C799.087 480.104 803.598 479.931 808.942 479.931C814.292 479.931 818.382 480.104 821.222 480.448C824.062 480.793 826.652 481.31 828.992 482C831.332 482.69 833.422 483.552 835.262 484.586C837.092 485.621 838.602 486.943 839.772 488.552C840.942 490.161 841.352 491.77 841.022 493.379C840.692 494.988 840.182 496.253 839.522 497.172C838.852 498.092 837.092 499.873 834.252 502.517C831.412 505.161 821.562 512.229 804.684 523.724C787.809 535.218 777.952 542.114 775.111 544.413C772.271 546.712 769.097 549.643 765.588 553.206C762.08 556.769 759.156 560.39 756.817 564.068C754.478 567.746 752.974 571.424 752.306 575.102C751.637 578.78 751.554 581.596 752.055 583.55C752.556 585.504 753.392 587.401 754.561 589.24C755.731 591.079 757.151 592.745 758.822 594.24C760.492 595.734 762.497 597.113 764.836 598.378C767.175 599.642 770.183 600.906 773.858 602.171C777.534 603.435 780.875 604.354 783.883 604.929C786.89 605.504 790.315 605.964 794.158 606.308C798.001 606.653 803.431 606.653 810.452 606.308C817.462 605.964 823.562 605.217 828.742 604.067C833.922 602.918 840.272 601.136 847.792 598.722C855.312 596.309 873.522 588.895 902.422 576.481C931.322 564.068 953.462 554.24 968.832 546.999C984.202 539.758 992.812 535.562 994.652 534.413C996.482 533.264 997.652 532.689 998.152 532.689C998.662 532.689 1002.41 530.792 1009.43 526.999C1012.94 525.103 1024.25 523.431 1027.76 521.534C1027.26 521.649 1025.93 518.223 1025.43 518.338C1024.43 518.568 1015.61 522.747 1012.94 524.241C1010.27 525.735 1006.76 527.402 1002.41 529.241C998.072 531.08 995.902 532.114 995.902 532.344C995.902 532.459 995.902 532.574 995.902 532.689C995.652 532.689 995.402 532.689 995.152 532.689C994.652 532.689 993.392 533.264 991.392 534.413C989.382 535.562 981.782 539.126 968.582 545.103C955.382 551.079 936.842 559.125 912.952 569.24C889.052 579.355 872.852 586.021 864.332 589.24C855.812 592.458 848.462 594.987 842.272 596.826C836.092 598.665 830.662 600.044 825.982 600.964C821.312 601.883 815.882 602.458 809.692 602.688C803.514 602.918 797.917 602.745 792.905 602.171C787.893 601.596 782.797 600.446 777.617 598.722C772.438 596.998 768.512 595.159 765.839 593.205C763.166 591.251 761.161 588.895 759.824 586.136C758.487 583.378 757.819 581.136 757.819 579.412C757.819 577.688 758.32 575.389 759.323 572.516C760.325 569.642 761.996 566.596 764.335 563.378C766.674 560.16 769.598 556.941 773.106 553.723C776.615 550.505 782.546 545.907 790.9 539.93C799.254 533.953 807.442 528.436 815.462 523.379C823.482 518.321 829.492 514.241 833.502 511.138C837.512 508.034 840.852 504.988 843.532 502C846.202 499.011 847.792 496.54 848.292 494.586C848.792 492.632 848.962 491.195 848.792 490.276C848.622 489.356 848.122 488.207 847.292 486.828C846.452 485.448 844.782 483.897 842.272 482.172C839.772 480.448 837.012 479.069 834.002 478.035C831.002 477 827.652 476.196 823.982 475.621C820.302 475.046 813.952 474.874 804.934 475.104C795.912 475.334 785.888 476.368 774.861 478.207C763.834 480.046 752.389 482.345 740.527 485.103C728.665 487.862 716.134 491.138 702.935 494.931C689.736 498.724 676.036 503.092 661.835 508.034C647.634 512.977 634.518 517.862 622.489 522.689C610.459 527.517 604.278 530.103 603.944 530.448C603.609 530.792 603.192 530.965 602.691 530.965C602.189 530.965 589.325 536.712 564.096 548.206C538.868 559.7 517.232 569.93 499.188 578.895C481.144 587.86 471.788 592.631 471.119 593.205C470.451 593.78 467.11 595.447 461.095 598.205C455.08 600.964 452.073 602.458 452.073 602.688C452.073 602.918 438.623 609.584 411.724 622.687C384.825 635.791 363.273 645.902 347.067 653.032C330.86 660.162 314.905 666.592 299.2 672.342C283.495 678.092 271.967 682.052 264.615 684.242C257.264 686.422 249.829 688.432 242.311 690.272C234.792 692.112 226.94 693.782 218.753 695.272C210.567 696.762 202.464 697.972 194.444 698.892C186.424 699.812 180.243 700.392 175.899 700.622C171.555 700.852 163.702 700.852 152.341 700.622C140.98 700.392 131.791 699.812 124.774 698.892C117.757 697.972 111.408 696.942 105.727 695.792C100.047 694.642 96.5383 693.782 95.2023 693.202C93.8653 692.632 73.7593 687.332 72.7573 687.332C72.2553 687.332 71.5322 686.982 71.0312 686.982C72.7023 687.552 93.5313 693.492 95.2023 694.062C98.5433 695.212 104.809 696.652 113.998 698.372C123.187 700.102 132.042 701.302 140.562 701.992C149.083 702.682 156.267 703.032 162.115 703.032C167.963 703.032 176.567 702.572 187.928 701.652ZM88.4353 691.652C88.0183 691.532 87.6003 691.422 87.1823 691.312C87.1823 691.422 87.1823 691.532 87.1823 691.652C87.1823 691.762 88.0183 691.992 88.4353 691.992C88.8533 691.992 89.2713 691.992 89.6883 691.992C89.2713 691.882 88.8533 691.762 88.4353 691.652ZM86.6813 690.962C86.6813 690.852 86.0133 690.622 85.6793 690.622C85.3443 690.622 85.0103 690.622 84.6763 690.622C85.0103 690.732 85.3443 690.852 85.6793 690.962C86.0133 691.082 86.3473 691.192 86.6813 691.312C86.6813 691.192 86.6813 691.082 86.6813 690.962Z" fill="#385A61"/>
<path d="M1156.91 275.407C1156.69 275.374 1156.5 275.486 1156.28 275.469C1134.84 286.649 1021.02 408.35 1021.03 446.844C1021.05 496.548 1021.29 521.748 1021.78 522.438C1022.69 523.706 1023.6 524.345 1024.5 524.344C1025.41 524.344 1026.11 524.075 1026.66 523.532C1027.2 522.988 1027.77 521.982 1028.31 520.532C1028.86 519.082 1030.84 515.723 1034.28 510.469C1037.73 505.215 1044.07 496.785 1053.31 485.188C1062.56 473.591 1070.89 464.186 1078.31 456.938C1085.74 449.69 1093.97 442.236 1103.03 434.625C1112.09 427.015 1119.62 421.037 1125.6 416.688C1131.58 412.339 1140.38 406.46 1151.97 399.032C1163.57 391.603 1174.99 384.818 1186.22 378.657C1197.46 372.496 1208.61 366.885 1219.66 361.813C1230.71 356.74 1236.22 353.382 1236.22 351.751C1236.22 350.12 1236.05 349.113 1235.69 348.751C1235.33 348.388 1233.24 347.582 1229.44 346.313C1225.63 345.045 1222.01 343.499 1218.57 341.688C1215.12 339.876 1211.03 337.255 1206.31 333.813C1201.6 330.37 1197.17 326.544 1193 322.375C1188.83 318.208 1183.5 311.623 1176.97 302.563C1171.28 294.657 1166.32 286.565 1161.88 278.375C1160.56 276.819 1158.81 275.693 1156.91 275.407Z" fill="#CC171C"/>
<path d="M1137.85 221.812C1134.58 211.847 1130.76 197.638 1126.41 179.156C1122.06 160.674 1118.26 140.119 1115 117.469C1111.74 94.8195 1109.56 76.7835 1108.47 63.3745C1107.67 53.5365 1107.38 46.5445 1107.07 39.4375C1088.75 40.6035 1069.66 41.4895 1047.63 42.1875C1045.89 42.2425 1044.85 42.3075 1039.13 42.7185C1034.15 43.0765 1030.98 43.2695 1027.44 43.3745C1026 43.4175 1024.7 43.3705 1023.31 43.3745C1022.63 78.3715 1022.01 152.335 1021.5 269.938C1021.17 346.165 1021.01 405.136 1021.02 446.847" fill="#CC171C"/>
</svg>
