<svg width="67" height="42" viewBox="0 0 67 42" fill="none" xmlns="http://www.w3.org/2000/svg">
<g clip-path="url(#clip0_804_610)">
<path d="M62.5484 5.16272C62.5484 5.21169 62.5484 5.2729 62.5359 5.30964C62.4732 5.78711 62.4732 6.26458 62.5107 6.7543C62.5358 6.87673 62.5609 6.99916 62.6611 7.09711C62.8238 7.28074 63.0742 7.24402 63.1744 7.02365C63.2246 6.91346 63.2246 6.80327 63.1995 6.69309C63.0742 6.22785 63.0492 5.73814 63.0367 5.26066C63.0367 5.23617 63.0367 5.19944 63.0367 5.16272C63.1744 5.15047 63.2997 5.13823 63.4123 5.13823C63.5 5.12599 63.5752 5.11374 63.6378 5.07701C63.8255 4.97908 63.8255 4.77095 63.6252 4.673C63.5501 4.63627 63.4499 4.62402 63.3623 4.62402C63.0492 4.63627 62.7362 4.63627 62.4231 4.63627C62.3105 4.63627 62.1977 4.64852 62.085 4.66075C62.0224 4.673 61.9473 4.673 61.8973 4.70973C61.8095 4.74645 61.7595 4.80767 61.7595 4.89337C61.772 4.97908 61.8095 5.02804 61.8973 5.06478C61.9473 5.10151 62.0099 5.11374 62.0725 5.11374C62.2228 5.12599 62.3856 5.15047 62.5484 5.16272ZM65.9918 5.72589C65.9918 5.73814 66.0043 5.75038 66.0043 5.75038C66.0544 6.08094 66.1045 6.39926 66.142 6.71757C66.1546 6.82775 66.1671 6.9257 66.2423 7.0114C66.405 7.21953 66.6555 7.19504 66.7681 6.97468C66.8182 6.86448 66.8307 6.7543 66.8057 6.63187C66.7306 6.26458 66.693 5.89729 66.6179 5.54225C66.5678 5.32187 66.5052 5.11374 66.4426 4.91786C66.405 4.79543 66.3174 4.70972 66.1671 4.69749C66.0169 4.673 65.9042 4.74645 65.8415 4.85665C65.7664 4.95458 65.7038 5.05253 65.6537 5.16272C65.5661 5.3586 65.4909 5.5545 65.3908 5.73814C65.3782 5.78711 65.3657 5.82384 65.3407 5.86056C65.3282 5.83608 65.3157 5.82384 65.3157 5.82384C65.1528 5.51776 65.0026 5.21169 64.8398 4.91786C64.8147 4.89337 64.8022 4.86888 64.7897 4.8444C64.7146 4.73422 64.627 4.673 64.4892 4.673C64.364 4.68524 64.2638 4.7587 64.2012 4.86888C64.1761 4.91786 64.1761 4.95458 64.1636 5.00356C64.1135 5.39533 64.0509 5.78711 64.0009 6.17888C63.9758 6.39926 63.9633 6.61962 63.9633 6.84C63.9508 6.88897 63.9633 6.95018 63.9883 6.99916C64.0134 7.0971 64.0885 7.15832 64.1886 7.17056C64.3139 7.18281 64.4015 7.14608 64.4391 7.04813C64.4766 6.97468 64.4892 6.91346 64.5017 6.85225C64.5518 6.63187 64.5894 6.42374 64.627 6.21561C64.652 6.09318 64.6645 5.99524 64.7021 5.86056C64.7271 5.90954 64.7521 5.94627 64.7772 5.98299C64.8899 6.12991 65.0026 6.27683 65.1403 6.39926C65.2781 6.49719 65.3908 6.48496 65.5034 6.37476C65.5285 6.35028 65.541 6.33804 65.5661 6.31355C65.6788 6.14215 65.8165 5.97075 65.9292 5.79935C65.9543 5.77486 65.9668 5.75038 65.9918 5.72589Z" fill="white"/>
<path d="M37.1401 5.4032C37.0531 5.63587 37.0365 5.8035 37.0767 5.94283C37.1211 6.13229 37.2363 6.19431 37.3926 6.14613C38.8634 5.79053 42.0885 6.79987 43.2825 7.08118C43.5641 7.14025 43.7932 6.78482 43.6011 6.46616C43.3206 6.15755 40.0969 4.8363 38.8669 4.76426C38.3848 4.73762 37.5228 4.61674 37.1401 5.4032Z" fill="white"/>
<path d="M49.7446 1.12625C49.9013 1.21471 49.989 1.29909 50.0322 1.39337C50.0966 1.51704 50.0627 1.60261 49.9544 1.64627C48.9822 2.1102 47.6885 4.1075 47.1663 4.79635C47.0397 4.95481 46.7477 4.86273 46.7036 4.60213C46.7127 4.30749 47.8595 2.13997 48.4995 1.54961C48.751 1.31912 49.1665 0.866863 49.7446 1.12625Z" fill="white"/>
<path d="M42.0023 0.142987C42.1906 0.00421802 42.3863 -0.0444108 42.4863 0.0457716C43.9531 1.27231 44.731 3.21465 45.2126 4.99282C45.2308 5.03424 45.2319 5.09369 45.2174 5.15571C45.2114 5.20872 45.1718 5.26471 45.1089 5.30804C45.0417 5.35587 44.9838 5.37044 44.9566 5.32922C44.3137 4.47426 40.6419 1.14776 42.0023 0.142987Z" fill="white"/>
<path d="M10.94 21.4081C11.2916 21.1522 11.6738 20.9391 12.0782 20.7738C12.5014 20.6555 12.9524 20.6751 13.3632 20.8297C13.7738 20.9844 14.1219 21.2655 14.3546 21.6307C14.5628 21.9949 14.6443 22.4155 14.5868 22.829C14.5293 23.2424 14.336 23.6265 14.0359 23.9232C13.8033 24.1638 13.5392 24.3733 13.2506 24.5464C11.9645 25.3589 10.6669 26.1267 9.36931 26.9391C9.10381 27.1424 8.82215 27.3248 8.52703 27.4844C8.07814 27.7033 7.56513 27.7619 7.07669 27.6502C6.58827 27.5385 6.15516 27.2633 5.85224 26.8724C5.6258 26.5956 5.43469 26.2929 5.28313 25.9709C4.05387 23.4447 2.77908 20.9296 1.59534 18.3588C1.049 17.246 0.605099 15.9661 0.17258 14.7309C-0.0145479 14.3719 -0.0510897 13.9559 0.0707353 13.571C0.19256 13.1861 0.463141 12.8629 0.824919 12.6701C1.1867 12.4773 1.61113 12.4301 2.00795 12.5386C2.40478 12.647 2.74269 12.9025 2.9498 13.2507C3.58644 14.0779 4.14999 14.9566 4.63436 15.8772C5.86362 18.1029 7.03598 20.3286 8.21972 22.4876C8.28864 22.6069 8.36464 22.722 8.44736 22.8326C9.33832 22.4663 10.1763 21.9874 10.94 21.4081Z" fill="white"/>
<path d="M23.6499 20.6318C20.8386 23.848 16.1264 23.0356 13.7589 18.8957C12.0743 15.9577 11.7784 11.1056 15.4435 8.04518C16.2261 7.40446 17.162 6.968 18.1638 6.7765C19.3921 6.60433 20.6446 6.8162 21.7423 7.38184C22.8401 7.94749 23.7268 8.83793 24.276 9.92595C26.2792 13.4872 25.9947 18.0277 23.6499 20.6318ZM22.5117 13.131C22.213 12.2559 21.6139 11.5088 20.8158 11.0165C20.3642 10.7018 19.8154 10.5488 19.262 10.5833C18.7084 10.6177 18.184 10.8375 17.7768 11.2057C16.1492 12.6191 15.8077 15.9689 16.9914 17.9609C17.1423 18.2858 17.3638 18.5744 17.6408 18.8068C17.9177 19.0391 18.2432 19.2095 18.5944 19.3059C18.9457 19.4024 19.3143 19.4226 19.6744 19.3653C20.0346 19.3078 20.3774 19.1742 20.6793 18.9736C21.5616 18.3048 22.2088 17.3838 22.5311 16.3388C22.8534 15.2936 22.8347 14.1764 22.4776 13.1422L22.5117 13.131Z" fill="white"/>
<path d="M35.1231 14.5333C34.8353 14.5938 34.5379 14.5974 34.2486 14.5439C33.9594 14.4903 33.6839 14.3808 33.4386 14.2217C33.2239 14.1016 33.0391 13.9366 32.8974 13.7383C32.7559 13.5401 32.661 13.3136 32.6197 13.0752C32.5782 12.8368 32.5915 12.5925 32.6582 12.3597C32.725 12.1269 32.8439 11.9114 33.0061 11.7288C33.2886 11.3619 33.6897 11.0992 34.1443 10.9832C35.331 10.6465 36.5528 10.4411 37.7865 10.3712C38.0576 10.3403 38.3322 10.3628 38.5943 10.4371C38.8564 10.5116 39.1005 10.6363 39.3126 10.8043C39.5247 10.9722 39.7003 11.1799 39.8291 11.4151C39.9579 11.6503 40.0374 11.9084 40.0629 12.174C40.4186 13.4789 40.4575 14.847 40.1767 16.1693C39.1524 20.4427 35.6239 21.9116 31.6629 20.5428C30.5511 20.1768 29.5762 19.4949 28.8629 18.5842C27.9116 17.4874 27.2372 16.1876 26.8938 14.7893C26.6157 13.5441 26.6461 12.252 26.9828 11.0207C27.3194 9.78946 27.9523 8.65474 28.8288 7.71137C29.6606 6.68602 30.7402 5.87908 31.9703 5.36319C32.7476 4.94429 33.6572 4.82518 34.5199 5.02933C34.7156 5.08229 34.8932 5.18548 35.0344 5.32819C35.1755 5.47091 35.2751 5.64795 35.3227 5.84097C35.3704 6.03398 35.3643 6.23593 35.3052 6.42589C35.246 6.61583 35.136 6.78686 34.9865 6.92122C34.7023 7.17279 34.3935 7.39644 34.0646 7.58895C33.0526 8.21901 32.1721 9.0309 31.4694 9.98161C31.0089 10.5968 30.6917 11.3033 30.5403 12.0512C30.3888 12.799 30.4068 13.5703 30.5931 14.3108C30.8512 15.3203 31.424 16.2264 32.232 16.9037C34.7361 19.1295 37.9914 16.9816 37.4223 13.9434C36.5914 14.1438 35.8629 14.3552 35.1231 14.5333Z" fill="white"/>
<path d="M50.4208 20.8099C46.7216 23.0357 42.5103 20.8099 41.5883 16.1358C40.9168 12.7972 42.1916 8.12312 46.6534 6.34252C47.6027 5.97182 48.6323 5.84167 49.6468 5.96414C50.8657 6.1823 51.9839 6.76899 52.8435 7.64151C53.7032 8.51402 54.2612 9.62832 54.4387 10.8274C55.1899 14.8003 53.4826 19.0404 50.4208 20.8099ZM51.707 13.3202C51.7059 12.3957 51.3714 11.5011 50.7623 10.794C50.4367 10.3566 49.966 10.0433 49.4305 9.90724C48.8949 9.77131 48.3279 9.82114 47.8257 10.0484C45.8225 10.8941 44.4111 13.9657 44.9233 16.2249C44.9624 16.5794 45.0802 16.9213 45.2685 17.2267C45.4569 17.5321 45.7112 17.7935 46.0137 17.9928C46.3161 18.192 46.6594 18.3243 47.0195 18.3804C47.3798 18.4363 47.7482 18.4147 48.0989 18.3171C49.1577 17.9554 50.0746 17.2795 50.7214 16.3836C51.3683 15.4878 51.7129 14.4168 51.707 13.3202Z" fill="white"/>
<path d="M58.1794 21.7446C58.1236 22.1519 57.9046 22.5208 57.5705 22.7702C57.2364 23.0196 56.8147 23.129 56.3981 23.0744C55.9816 23.0198 55.6042 22.8056 55.3492 22.479C55.094 22.1525 54.9821 21.7401 55.038 21.3328C55.0938 20.9255 55.3129 20.5566 55.6469 20.3071C55.981 20.0577 56.4027 19.9483 56.8193 20.0029C57.2358 20.0575 57.6132 20.2716 57.8683 20.5983C58.1234 20.9249 58.2353 21.3373 58.1794 21.7446ZM57.1891 6.73184C57.4056 6.40858 57.7232 6.16241 58.0945 6.03005C58.4658 5.89768 58.8709 5.88621 59.2493 5.99734C59.6341 6.09147 59.974 6.31198 60.2124 6.62195C60.4506 6.93193 60.5727 7.31254 60.5583 7.70004C60.5081 8.32162 60.413 8.93895 60.2738 9.54739C59.8981 11.6063 59.5339 13.665 59.1356 15.7016C58.9534 16.514 58.7144 17.2931 58.4526 18.1165C58.3615 18.374 58.2094 18.6066 58.0087 18.7954C57.884 18.9375 57.7246 19.0464 57.5454 19.1121C57.3661 19.178 57.1728 19.1985 56.9833 19.1719C56.7939 19.1453 56.6142 19.0723 56.4612 18.9599C56.3082 18.8473 56.1867 18.6989 56.1079 18.5283C55.9726 18.2223 55.8991 17.8935 55.8916 17.5601C55.8916 16.1802 55.8916 14.7891 55.9827 13.3979C56.1374 11.4127 56.4417 9.44123 56.8932 7.49972C56.9464 7.23961 57.0465 6.99086 57.1891 6.76523V6.73184Z" fill="white"/>
<path fill-rule="evenodd" clip-rule="evenodd" d="M6.13118 30.6874C5.99679 30.9808 5.95994 31.3078 6.02561 31.6225C6.0693 32.0374 6.16526 32.4454 6.31131 32.8374C6.49364 33.3173 6.69768 33.7919 6.94926 34.3769C7.00711 34.5115 7.06757 34.652 7.13084 34.7998C7.47011 35.5923 7.8958 36.6051 8.46361 38.0708C8.62432 38.4871 8.76704 38.9069 8.91075 39.3296C8.96881 39.5004 9.02707 39.6717 9.08671 39.8434C9.30049 40.454 9.66834 41.0025 10.1559 41.4372C10.363 41.6761 10.6376 41.8502 10.9455 41.9372C11.2595 42.026 11.5934 42.0204 11.904 41.9211C12.2146 41.8217 12.4874 41.6333 12.687 41.3803C12.8827 41.1322 12.999 40.8332 13.0217 40.5209C13.1486 39.9125 13.1053 39.2816 12.896 38.695C12.564 37.7211 12.1857 36.7458 11.7494 35.7918L11.7474 35.7876C11.0298 34.2951 10.3003 32.8128 9.53636 31.33L9.53065 31.3196C9.307 30.9333 9.01635 30.588 8.67175 30.2991C8.44805 30.0413 8.13947 29.8674 7.7987 29.8075C7.45066 29.7463 7.09171 29.8079 6.78594 29.9816C6.49667 30.1431 6.26737 30.3902 6.13118 30.6874Z" fill="white"/>
<path fill-rule="evenodd" clip-rule="evenodd" d="M17.0918 27.0123C15.9666 26.7273 14.7914 26.6858 13.6483 26.8906C12.7628 26.9759 11.892 27.1756 11.2873 27.5711C10.9798 27.7725 10.7311 28.0309 10.5928 28.3595C10.4537 28.6899 10.4359 29.0677 10.5499 29.4886C10.758 30.2597 11.0282 31.0094 11.2975 31.7567L11.3411 31.8778L11.3422 31.8804C12.153 34.0515 12.9715 36.2151 13.7975 38.3714C13.8938 38.7112 14.03 39.039 14.2033 39.3481L14.2066 39.3539C14.4356 39.738 14.7293 40.0815 15.0753 40.3701C15.2484 40.5287 15.4624 40.6385 15.6944 40.6876C15.9288 40.737 16.1725 40.7227 16.399 40.6459C16.6256 40.5693 16.8262 40.4333 16.9792 40.2527C17.1296 40.075 17.2281 39.861 17.2643 39.6333C17.4136 39.0145 17.3658 38.3659 17.1271 37.7745C17.0527 37.5754 16.9942 37.372 16.9327 37.1579C16.9122 37.0865 16.8913 37.0139 16.8694 36.9399C18.7601 36.2173 20.7718 35.2457 21.4792 32.9853C21.7562 32.2042 21.7793 31.3584 21.5452 30.5638C21.311 29.7684 20.8304 29.0634 20.1696 28.5458C19.2704 27.8213 18.2199 27.2979 17.0918 27.0123ZM13.9728 29.7847C14.0101 29.7742 14.0476 29.7645 14.0852 29.7554C15.3161 29.5662 16.5754 29.8183 17.6313 30.4651C18.0967 30.7816 18.2873 31.1331 18.32 31.4714C18.3538 31.8197 18.2243 32.1972 17.9641 32.56C17.4724 33.2453 16.5751 33.7939 15.7646 33.8962C15.1737 32.5657 14.5737 31.1814 13.9728 29.7847Z" fill="white"/>
<path d="M24.5936 24.5769C25.9336 23.9718 27.5934 23.8673 28.8923 24.2928C29.2194 24.3859 29.5032 24.5874 29.6951 24.8628C29.8859 25.1365 29.9739 25.4663 29.9445 25.796C29.9426 26.01 29.8888 26.2206 29.7877 26.4105C29.6848 26.6039 29.5358 26.7702 29.3533 26.8954C29.1708 27.0206 28.9601 27.101 28.7392 27.1298C28.5181 27.1586 28.2933 27.1349 28.0836 27.0607L28.0676 27.0551L28.0526 27.0474C27.9454 26.9925 27.8314 26.9512 27.7135 26.9242L27.7061 26.9226C26.7924 26.6853 25.9305 27.0785 25.6157 27.5616C25.4655 27.7919 25.4469 28.0245 25.572 28.236C25.7059 28.4625 26.0344 28.7167 26.699 28.8979C26.8818 28.9469 27.0692 28.9943 27.2592 29.0424C27.7848 29.1754 28.331 29.3137 28.8591 29.5052L28.8612 29.506C31.2977 30.4124 32.205 32.2897 31.8944 34.0555C31.5871 35.8016 30.0957 37.3907 27.8528 37.7656C27.0366 37.9425 26.1873 37.908 25.3888 37.6656C24.5883 37.4225 23.8668 36.9789 23.2959 36.3787L23.281 36.3631C23.1008 36.1369 22.9795 35.8713 22.9258 35.5894C22.8763 35.335 22.9024 35.0721 23.0007 34.8317C23.0985 34.5927 23.2638 34.3858 23.4771 34.2351C23.7025 34.0642 23.9742 33.9617 24.2585 33.9403C24.5419 33.9191 24.8255 33.9793 25.0744 34.1135C25.3229 34.2309 25.5541 34.3807 25.7616 34.5588L25.7656 34.562C26.1327 34.8903 26.5768 34.9758 27.0027 34.8966C27.4349 34.8162 27.8412 34.5662 28.1026 34.2345C28.3622 33.9049 28.4664 33.5134 28.3427 33.1333C28.2183 32.7504 27.844 32.3214 27.0216 31.9628C26.8067 31.8736 26.5838 31.8016 26.3519 31.7315C26.2894 31.7126 26.2258 31.6938 26.1615 31.6747C25.9901 31.6239 25.8137 31.5714 25.6407 31.5137C25.5216 31.474 25.4034 31.4364 25.2864 31.3991C24.9665 31.2972 24.6547 31.1979 24.3546 31.0648C23.7014 30.8473 23.137 30.4298 22.7456 29.874C22.3525 29.316 22.1547 28.6486 22.1816 27.9717C22.1837 26.3219 23.2464 25.1853 24.5936 24.5769Z" fill="white"/>
<path d="M41.5818 24.4011C41.3219 24.277 41.0346 24.2181 40.7458 24.2297C40.4568 24.2413 40.1754 24.323 39.927 24.4677C39.68 24.6112 39.4733 24.8123 39.3251 25.0529C39.1893 25.2555 39.0953 25.4822 39.0484 25.7201C39.0015 25.9579 39.0027 26.2023 39.0517 26.4395C39.1 26.7443 39.1537 27.0408 39.2067 27.3332C39.2944 27.8171 39.3797 28.29 39.436 28.7723L39.4381 28.7845C39.5663 29.5408 39.6334 30.3057 39.6395 31.0722L39.64 31.083C39.6838 31.9108 39.3954 32.7225 38.8365 33.3458L38.8276 33.3569C38.6458 33.5847 38.4027 33.7586 38.1254 33.8591C37.8482 33.9597 37.5479 33.9828 37.258 33.9259C36.9681 33.869 36.7001 33.7344 36.484 33.5371C36.2679 33.3398 36.112 33.0868 36.0342 32.808C35.8681 32.2203 35.772 31.6158 35.7476 31.0066L36.0313 26.5906C36.0355 26.5329 36.0403 26.4737 36.0451 26.414C36.0559 26.2799 36.067 26.1433 36.0716 26.0158C36.0782 25.8284 36.0725 25.6355 36.0278 25.453C35.9821 25.2665 35.8952 25.0891 35.7409 24.938C35.5882 24.7884 35.382 24.678 35.1226 24.6029C34.6534 24.4701 34.2567 24.4743 33.9261 24.6115C33.5954 24.7487 33.3688 25.0034 33.2084 25.2975C33.0493 25.5893 32.947 25.9346 32.8697 26.2805C32.8124 26.5372 32.7663 26.8067 32.7224 27.0632C32.7073 27.1516 32.6925 27.2383 32.6775 27.3226L32.6771 27.3251C32.4427 28.7317 32.3729 30.1599 32.4691 31.582C32.4871 32.3505 32.6509 33.1091 32.9526 33.819C33.2929 34.7349 33.9092 35.5286 34.7203 36.0951C35.5331 36.6627 36.503 36.9755 37.5017 36.9921C38.5003 37.0086 39.4805 36.728 40.3125 36.1877C41.1432 35.6481 41.7869 34.8747 42.1586 33.9699C42.6785 32.8173 42.9227 31.5638 42.8723 30.3049C42.8418 29.3859 42.7906 28.4598 42.7397 27.5383C42.7147 27.0864 42.6898 26.6353 42.6675 26.1871C42.6562 25.7376 42.5046 25.3022 42.233 24.9394C42.0649 24.71 41.8411 24.525 41.5818 24.4011Z" fill="white"/>
<path d="M50.7781 31.3256C50.7518 31.3583 50.724 31.3922 50.695 31.4275C50.4837 30.2354 50.2878 29.0438 50.0916 27.8503C50.0213 27.4221 49.9506 26.9921 49.8794 26.5633L49.8714 26.5155L49.8455 26.4741C49.7965 26.3963 49.7916 26.3201 49.7916 26.1574V26.1386L49.7887 26.12C49.7356 25.7841 49.5802 25.4715 49.3428 25.2231C49.1061 24.9754 48.7986 24.803 48.4604 24.7282C48.1228 24.6467 47.768 24.6647 47.4407 24.7798C47.1142 24.8946 46.8297 25.101 46.6225 25.3731C46.4503 25.5818 46.3092 25.8134 46.2034 26.0608C45.9633 26.5938 45.7212 27.1282 45.4783 27.664L45.4741 27.6732C44.8679 29.0108 44.2576 30.3574 43.665 31.7146L43.6632 31.719C43.2994 32.599 42.9991 33.5262 42.6998 34.4506C42.6401 34.6351 42.5803 34.8195 42.5201 35.0035C42.412 35.2952 42.3648 35.605 42.381 35.9148C42.3613 36.1921 42.4292 36.4687 42.5756 36.7072C42.7249 36.9506 42.9486 37.1421 43.215 37.2549C43.4974 37.3759 43.813 37.4016 44.1121 37.3279C44.4105 37.2543 44.6755 37.0859 44.8653 36.8492C45.1078 36.5576 45.3163 36.2395 45.4864 35.9026C45.9884 34.8986 46.4682 33.8824 46.9457 32.8705C47.1305 32.4792 47.3101 32.1287 47.5144 31.7469C47.5284 31.794 47.5427 31.8399 47.5575 31.8859C47.7716 32.8075 48.133 33.6903 48.6283 34.5019C48.7221 34.6738 48.8526 34.824 49.0111 34.9423C49.1715 35.062 49.3565 35.146 49.5535 35.1887C49.7504 35.2313 49.9545 35.2315 50.1515 35.1892C50.3482 35.147 50.5339 35.0629 50.6943 34.9438L51.0119 34.7114L53.4768 32.6813L53.3311 33.5896C53.131 34.838 52.9325 36.0761 52.7215 37.3144C52.5835 37.8633 52.5837 38.4366 52.7221 38.9853C52.782 39.2941 52.9348 39.5783 53.1608 39.8019C53.3887 40.0272 53.6806 40.1803 53.9987 40.2414C54.3167 40.3024 54.6463 40.2686 54.9444 40.1443C55.2382 40.0218 55.4881 39.817 55.6627 39.5559C56.0692 39.0629 56.3221 38.466 56.3916 37.8363C56.4963 36.947 56.6144 36.0456 56.7327 35.1446C56.8689 34.1059 57.0051 33.0676 57.1201 32.0491L57.1205 32.046C57.2313 30.9312 57.2848 29.8118 57.2811 28.6917C57.3053 28.3378 57.2152 27.9852 57.0232 27.6838C56.8304 27.3814 56.545 27.1463 56.2077 27.0118C55.8568 26.8558 55.464 26.8141 55.0871 26.893C54.7126 26.9713 54.3736 27.1643 54.1193 27.4439C53.6647 27.855 53.2382 28.2949 52.8425 28.7608L52.8399 28.764C52.4079 29.2902 51.979 29.8268 51.5528 30.3599C51.2936 30.684 51.0352 31.0073 50.7781 31.3256Z" fill="white"/>
</g>
<defs>
<clipPath id="clip0_804_610">
<rect width="66.8182" height="42" fill="white"/>
</clipPath>
</defs>
</svg>
