<svg width="158" height="32" viewBox="0 0 158 32" fill="none" xmlns="http://www.w3.org/2000/svg">
<path d="M45.4666 1C45.4666 1.55229 45.9142 2 46.4666 2H47.4666C48.0189 2 48.4666 1.55229 48.4666 1C48.4666 0.447718 48.0189 2.79753e-06 47.4666 2.79753e-06H46.4666C45.9142 2.79753e-06 45.4666 0.447718 45.4666 1Z" fill="white"/>
<path d="M16.4666 32H21.3244L19.9102 30.5858C19.5351 30.2107 19.0264 30 18.496 30H16.4666C8.73455 30 2.46655 23.732 2.46655 16C2.46655 8.268 8.73455 2.00001 16.4666 2H32.4666C40.1986 2 46.4666 8.268 46.4666 16C46.4666 23.732 40.1986 30 32.4666 30H26.4813C25.6856 30 24.9226 29.6839 24.3599 29.1214L22.7031 27.4645C21.7654 26.5268 20.4936 26 19.1675 26H16.4666C10.9437 26 6.46655 21.5229 6.46655 16C6.46655 10.4771 10.9437 6 16.4666 6H32.4666C37.9894 6 42.4666 10.4771 42.4666 16C42.4666 21.5229 37.9894 26 32.4666 26H28.6234C27.8278 26 27.0647 25.6839 26.5021 25.1214L24.8452 23.4645C23.9075 22.5268 22.6358 22 21.3097 22H16.4666C13.1529 22 10.4666 19.3137 10.4666 16C10.4666 12.6863 13.1529 10 16.4666 10H32.4666C35.7802 10 38.4666 12.6863 38.4666 16C38.4666 19.2733 35.8454 21.9344 32.5875 21.9988L32.5869 22H31.1234C30.3278 22 29.5647 21.6839 29.0021 21.1214L27.3452 19.4645C26.5758 18.695 25.5815 18.2023 24.5168 18.0502L24.4666 18H16.4666C15.362 18 14.4666 17.1046 14.4666 16C14.4666 14.8954 15.362 14 16.4666 14H32.4666C33.5711 14 34.4666 14.8954 34.4666 16C34.4666 17.1046 33.5711 18 32.4666 18H28.4666L29.8808 19.4142C30.2558 19.7893 30.7646 20 31.295 20H32.4666C34.6757 20 36.4666 18.2091 36.4666 16C36.4666 13.7909 34.6757 12 32.4666 12H16.4666C14.2574 12 12.4666 13.7909 12.4666 16C12.4666 18.2091 14.2574 20 16.4666 20H23.8097C24.6054 20 25.3684 20.3161 25.931 20.8786L27.5879 22.5355C28.5256 23.4732 29.7974 24 31.1234 24H32.9666V23.9846C37.1519 23.7266 40.4666 20.2503 40.4666 16C40.4666 11.5818 36.8848 8 32.4666 8H16.4666C12.0483 8 8.46655 11.5818 8.46655 16C8.46655 20.4183 12.0483 24 16.4666 24H21.3097C22.1054 24 22.8684 24.3161 23.431 24.8786L25.0879 26.5355C26.0256 27.4732 27.2974 28 28.6234 28H32.4666C39.094 28 44.4666 22.6274 44.4666 16C44.4666 9.37256 39.094 4 32.4666 4H16.4666C9.83911 4 4.46655 9.37256 4.46655 16C4.46655 22.6274 9.83911 28 16.4666 28H19.1675C19.9632 28 20.7262 28.3161 21.2889 28.8786L22.9458 30.5355C23.8834 31.4732 25.1552 32 26.4813 32H32.4666C41.3031 32 48.4666 24.8366 48.4666 16C48.4666 7.16344 41.3031 -7.72516e-07 32.4666 0L16.4666 3.30611e-06C7.62999 4.07863e-06 0.466552 7.16345 0.466553 16C0.466554 24.8366 7.63 32 16.4666 32Z" fill="white"/>
<path d="M67.2266 9.216H66.3866L61.1066 24H58.6586L64.7066 7.2H68.8586L74.9066 24H72.4585L67.2266 9.216ZM61.7546 17.712H71.5466V19.728H61.7546V17.712Z" fill="white"/>
<path d="M76.5717 6.72H78.8277V24H76.5717V6.72Z" fill="white"/>
<path d="M82.7951 12V8.64H85.0751V12H88.0751V14.016H85.0751V19.92C85.0751 20.656 85.219 21.176 85.507 21.48C85.8111 21.784 86.1871 21.96 86.6351 22.008C87.0991 22.04 87.579 22.024 88.0751 21.96V23.904C87.4191 24.048 86.771 24.088 86.1311 24.024C85.507 23.976 84.9391 23.8 84.4271 23.496C83.9311 23.192 83.5311 22.752 83.2271 22.176C82.939 21.584 82.7951 20.832 82.7951 19.92V14.016H81.0671V12H82.7951Z" fill="white"/>
<path d="M95.5732 24.168C94.4212 24.168 93.3972 23.904 92.5012 23.376C91.6212 22.832 90.9252 22.088 90.4132 21.144C89.9172 20.2 89.6692 19.12 89.6692 17.904C89.6692 16.736 89.9172 15.696 90.4132 14.784C90.9092 13.872 91.5892 13.152 92.4532 12.624C93.3332 12.096 94.3252 11.832 95.4292 11.832C96.5492 11.832 97.5412 12.08 98.4052 12.576C99.2692 13.056 99.9412 13.736 100.421 14.616C100.901 15.48 101.133 16.48 101.117 17.616C101.117 17.808 101.109 18.008 101.093 18.216C101.077 18.408 101.053 18.624 101.021 18.864H92.1412C92.1892 19.504 92.3652 20.072 92.6692 20.568C92.9892 21.048 93.3892 21.424 93.8692 21.696C94.3652 21.968 94.9252 22.104 95.5492 22.104C96.3492 22.104 97.0452 21.952 97.6372 21.648C98.2292 21.328 98.6452 20.904 98.8852 20.376L100.853 21.072C100.373 22.048 99.6692 22.808 98.7412 23.352C97.8292 23.896 96.7732 24.168 95.5732 24.168ZM98.6452 16.92C98.6452 16.344 98.5012 15.824 98.2132 15.36C97.9252 14.896 97.5332 14.536 97.0372 14.28C96.5572 14.008 96.0132 13.872 95.4052 13.872C94.8612 13.872 94.3572 14.008 93.8932 14.28C93.4452 14.536 93.0612 14.896 92.7412 15.36C92.4372 15.808 92.2452 16.328 92.1652 16.92H98.6452Z" fill="white"/>
<path d="M103.649 12H105.713L105.857 13.608C106.193 13.192 106.577 12.848 107.009 12.576C107.457 12.288 107.937 12.088 108.449 11.976C108.977 11.864 109.521 11.872 110.081 12V14.136C109.553 14.008 109.041 13.992 108.545 14.088C108.049 14.184 107.601 14.392 107.201 14.712C106.817 15.016 106.505 15.424 106.265 15.936C106.025 16.448 105.905 17.064 105.905 17.784V24H103.649V12Z" fill="white"/>
<path d="M112.895 12V8.64H115.175V12H118.175V14.016H115.175V19.92C115.175 20.656 115.319 21.176 115.607 21.48C115.911 21.784 116.287 21.96 116.735 22.008C117.199 22.04 117.679 22.024 118.175 21.96V23.904C117.519 24.048 116.871 24.088 116.231 24.024C115.607 23.976 115.039 23.8 114.527 23.496C114.031 23.192 113.631 22.752 113.327 22.176C113.039 21.584 112.895 20.832 112.895 19.92V14.016H111.167V12H112.895Z" fill="white"/>
<path d="M128.649 12H131.001L124.041 28.8H121.809L123.921 23.76L119.169 12H121.665L125.145 21.096L128.649 12Z" fill="white"/>
<path d="M134.945 21.96L135.185 21.888V28.8H132.929V12H134.993L135.161 13.8C135.545 13.256 136.073 12.792 136.745 12.408C137.433 12.024 138.265 11.832 139.241 11.832C140.297 11.832 141.233 12.088 142.049 12.6C142.865 13.112 143.505 13.832 143.969 14.76C144.449 15.672 144.689 16.752 144.689 18C144.689 19.232 144.457 20.312 143.993 21.24C143.545 22.168 142.913 22.888 142.097 23.4C141.281 23.912 140.329 24.168 139.241 24.168C138.201 24.168 137.313 23.96 136.577 23.544C135.857 23.112 135.313 22.584 134.945 21.96ZM142.241 18C142.241 16.768 141.913 15.776 141.257 15.024C140.617 14.272 139.777 13.896 138.737 13.896C138.065 13.896 137.465 14.056 136.937 14.376C136.409 14.696 135.985 15.16 135.665 15.768C135.345 16.376 135.185 17.12 135.185 18C135.185 18.864 135.345 19.6 135.665 20.208C135.985 20.816 136.409 21.288 136.937 21.624C137.465 21.944 138.065 22.104 138.737 22.104C139.777 22.104 140.617 21.728 141.257 20.976C141.913 20.224 142.241 19.232 142.241 18Z" fill="white"/>
<path d="M152.381 24.168C151.229 24.168 150.205 23.904 149.309 23.376C148.429 22.832 147.733 22.088 147.221 21.144C146.725 20.2 146.477 19.12 146.477 17.904C146.477 16.736 146.725 15.696 147.221 14.784C147.717 13.872 148.397 13.152 149.261 12.624C150.141 12.096 151.133 11.832 152.237 11.832C153.357 11.832 154.349 12.08 155.213 12.576C156.077 13.056 156.749 13.736 157.229 14.616C157.709 15.48 157.941 16.48 157.925 17.616C157.925 17.808 157.917 18.008 157.901 18.216C157.885 18.408 157.861 18.624 157.829 18.864H148.949C148.997 19.504 149.173 20.072 149.477 20.568C149.797 21.048 150.197 21.424 150.677 21.696C151.173 21.968 151.733 22.104 152.357 22.104C153.157 22.104 153.853 21.952 154.445 21.648C155.037 21.328 155.453 20.904 155.693 20.376L157.661 21.072C157.181 22.048 156.477 22.808 155.549 23.352C154.637 23.896 153.581 24.168 152.381 24.168ZM155.453 16.92C155.453 16.344 155.309 15.824 155.021 15.36C154.733 14.896 154.341 14.536 153.845 14.28C153.365 14.008 152.821 13.872 152.213 13.872C151.669 13.872 151.165 14.008 150.701 14.28C150.253 14.536 149.869 14.896 149.549 15.36C149.245 15.808 149.053 16.328 148.973 16.92H155.453Z" fill="white"/>
</svg>
