<svg width="111" height="42" viewBox="0 0 111 42" fill="none" xmlns="http://www.w3.org/2000/svg">
<path d="M51.2927 37H54.1638V26.17H51.2927V37ZM51.2927 24.4811H54.1638V21.9055H51.2927V24.4811Z" fill="white"/>
<path d="M56.0139 40.5468H58.885V35.7757H58.9274C59.5395 36.7045 60.5317 37.3168 62.0517 37.3168C64.8384 37.3168 66.7384 35.1001 66.7384 31.5956C66.7384 28.2178 64.9017 25.8745 62.0306 25.8745C60.5529 25.8745 59.5395 26.5712 58.8428 27.5211H58.7795V26.1701H56.0139V40.5468ZM61.4396 34.9312C59.7295 34.9312 58.8217 33.6435 58.8217 31.6801C58.8217 29.7379 59.5395 28.1967 61.334 28.1967C63.1073 28.1967 63.8251 29.6323 63.8251 31.6801C63.8251 33.7279 62.8962 34.9312 61.4396 34.9312Z" fill="white"/>
<path d="M72.4657 37.3168C75.1679 37.3168 77.0256 36.0079 77.0256 33.8334C77.0256 31.3001 75.0201 30.7934 73.2046 30.4135C71.6634 30.0968 70.2278 30.0122 70.2278 29.0834C70.2278 28.3023 70.9667 27.88 72.0857 27.88C73.3101 27.88 74.049 28.3023 74.1756 29.4634H76.7724C76.5612 27.289 74.9779 25.8745 72.1279 25.8745C69.6579 25.8745 67.7156 26.9934 67.7156 29.3367C67.7156 31.7012 69.6157 32.229 71.5579 32.609C73.0356 32.9045 74.4079 33.0101 74.4079 34.0446C74.4079 34.8046 73.6901 35.2901 72.4234 35.2901C71.1357 35.2901 70.2489 34.7412 70.059 33.4956H67.3989C67.5679 35.7968 69.3201 37.3168 72.4657 37.3168Z" fill="white"/>
<path d="M87.9264 36.9999V26.1699H85.0552V32.4188C85.0552 33.8543 84.2319 34.8677 82.8808 34.8677C81.6564 34.8677 81.0863 34.171 81.0863 32.9043V26.1699H78.2363V33.3899C78.2363 35.7543 79.5875 37.2955 81.9942 37.2955C83.5142 37.2955 84.3586 36.7255 85.0976 35.7332H85.1609V36.9999H87.9264Z" fill="white"/>
<path d="M89.7837 37.0001H92.6549V30.7089C92.6549 29.2734 93.436 28.3445 94.5971 28.3445C95.6527 28.3445 96.2649 28.9778 96.2649 30.2023V37.0001H99.136V30.7089C99.136 29.2734 99.8749 28.3445 101.078 28.3445C102.134 28.3445 102.746 28.9778 102.746 30.2023V37.0001H105.617V29.7168C105.617 27.3523 104.329 25.8745 102.049 25.8745C100.677 25.8745 99.5371 26.5923 98.7983 27.7745H98.756C98.2282 26.6345 97.1304 25.8745 95.7582 25.8745C94.2593 25.8745 93.2037 26.6345 92.6126 27.6268H92.5493V26.1701H89.7837V37.0001Z" fill="white"/>
<path d="M51.335 18.4507H54.2061V3.3562H51.335V18.4507Z" fill="white"/>
<path d="M61.2264 18.7672C64.5832 18.7672 66.8842 16.2761 66.8842 13.0461C66.8842 9.81607 64.5832 7.32495 61.2264 7.32495C57.8698 7.32495 55.5686 9.81607 55.5686 13.0461C55.5686 16.2761 57.8698 18.7672 61.2264 18.7672ZM61.2264 16.5717C59.4531 16.5717 58.482 15.1572 58.482 13.0461C58.482 10.9349 59.4531 9.49941 61.2264 9.49941C62.9787 9.49941 63.9709 10.9349 63.9709 13.0461C63.9709 15.1572 62.9787 16.5717 61.2264 16.5717Z" fill="white"/>
<path d="M72.9901 22.1451C74.5946 22.1451 75.9879 21.7651 76.8957 20.9206C77.6979 20.1817 78.1835 19.1472 78.1835 17.6272V7.6205H75.4179V8.76051H75.3757C74.7212 7.85272 73.729 7.32495 72.3778 7.32495C69.6335 7.32495 67.6912 9.39385 67.6912 12.6239C67.6912 15.8961 70.0557 17.7961 72.4624 17.7961C73.8346 17.7961 74.6579 17.2472 75.2913 16.5294H75.3546V17.7116C75.3546 19.1894 74.5735 19.9705 72.9479 19.9705C71.6179 19.9705 71.0057 19.4428 70.7734 18.7672H67.9234C68.219 20.8783 70.0346 22.1451 72.9901 22.1451ZM72.9479 15.495C71.4701 15.495 70.499 14.4183 70.499 12.5817C70.499 10.7661 71.4701 9.62607 72.9268 9.62607C74.6579 9.62607 75.5023 10.9772 75.5023 12.5606C75.5023 14.165 74.7634 15.495 72.9479 15.495Z" fill="white"/>
<path d="M85.1622 18.7672C88.5189 18.7672 90.82 16.2761 90.82 13.0461C90.82 9.81607 88.5189 7.32495 85.1622 7.32495C81.8056 7.32495 79.5044 9.81607 79.5044 13.0461C79.5044 16.2761 81.8056 18.7672 85.1622 18.7672ZM85.1622 16.5717C83.3889 16.5717 82.4177 15.1572 82.4177 13.0461C82.4177 10.9349 83.3889 9.49941 85.1622 9.49941C86.9145 9.49941 87.9067 10.9349 87.9067 13.0461C87.9067 15.1572 86.9145 16.5717 85.1622 16.5717Z" fill="white"/>
<path d="M93.3369 14.3128H105.75V11.8428H93.3369V14.3128Z" fill="white"/>
<path d="M106.66 24.3304C106.66 23.8445 107.054 23.4507 107.54 23.4507H109.299C109.785 23.4507 110.179 23.8445 110.179 24.3304C110.179 24.8161 109.785 25.21 109.299 25.21H107.54C107.054 25.21 106.66 24.8161 106.66 24.3304Z" fill="white"/>
<path fill-rule="evenodd" clip-rule="evenodd" d="M22.2976 0C33.8956 0 43.2976 9.40201 43.2976 21C43.2976 32.598 33.8956 42 22.2976 42C10.6996 42 1.29761 32.598 1.29761 21C1.29761 9.40201 10.6996 0 22.2976 0ZM21.5386 1.57142C19.1429 1.90857 16.8616 3.83363 15.0908 7.05327C14.5772 7.98717 14.1137 9.01893 13.7098 10.133C16.1176 9.52788 18.7627 9.17114 21.5386 9.11596V1.57142ZM11.9349 10.6373C12.4372 9.06106 13.0516 7.61082 13.7607 6.32168C14.6385 4.72562 15.6803 3.34735 16.8541 2.28876C10.4712 4.14249 5.44009 9.17363 3.58637 15.5565C4.64495 14.3827 6.02323 13.3409 7.61929 12.4631C8.90843 11.754 10.3587 11.1396 11.9349 10.6373ZM11.4305 12.4122C10.8255 14.82 10.4688 17.4651 10.4136 20.241H2.86902C3.20619 17.8452 5.13125 15.5639 8.35088 13.7932C9.28478 13.2796 10.3165 12.8161 11.4305 12.4122ZM11.932 20.241C11.9947 17.2116 12.4307 14.3676 13.1523 11.8547C15.6652 11.1332 18.5093 10.697 21.5386 10.6343V13.9133C20.4084 16.8065 18.1035 19.1113 15.2102 20.241H11.932ZM10.4136 21.759H2.86902C3.20619 24.1548 5.13125 26.436 8.35088 28.2068C9.28478 28.7204 10.3165 29.1839 11.4305 29.5878C10.8255 27.18 10.4688 24.5349 10.4136 21.759ZM13.1523 30.1453C12.4307 27.6324 11.9947 24.7884 11.932 21.759H15.2102C18.1035 22.8887 20.4085 25.1935 21.5386 28.0867V31.3657C18.5093 31.303 15.6652 30.8668 13.1523 30.1453ZM11.9349 31.3627C10.3587 30.8604 8.90843 30.246 7.61929 29.5369C6.02323 28.6591 4.64495 27.6173 3.58637 26.4435C5.44009 32.8264 10.4712 37.8575 16.8541 39.7112C15.6803 38.6526 14.6385 37.2744 13.7607 35.6783C13.0516 34.3892 12.4372 32.9389 11.9349 31.3627ZM21.5386 40.4286C19.1429 40.0914 16.8616 38.1663 15.0908 34.9467C14.5772 34.0129 14.1137 32.981 13.7098 31.8671C16.1176 32.4721 18.7627 32.8289 21.5386 32.884V40.4286ZM27.7411 39.7112C28.9149 38.6526 29.9567 37.2744 30.8346 35.6783C31.5436 34.3892 32.158 32.9389 32.6603 31.3627C34.2365 30.8604 35.6868 30.246 36.976 29.5369C38.572 28.6591 39.9503 27.6173 41.0088 26.4435C39.1551 32.8264 34.124 37.8575 27.7411 39.7112ZM30.8854 31.8671C30.4815 32.981 30.018 34.0129 29.5044 34.9467C27.7337 38.1663 25.4524 40.0914 23.0566 40.4286V32.884C25.8325 32.8289 28.4776 32.4721 30.8854 31.8671ZM33.1647 29.5878C34.2786 29.1839 35.3105 28.7204 36.2443 28.2068C39.4639 26.436 41.389 24.1548 41.7262 21.759H34.1816C34.1265 24.5349 33.7697 27.18 33.1647 29.5878ZM32.6633 21.759C32.6006 24.7884 32.1644 27.6324 31.4429 30.1453C28.93 30.8668 26.086 31.303 23.0566 31.3657V28.0891C24.1863 25.1949 26.4918 22.8891 29.3859 21.759H32.6633ZM34.1816 20.241H41.7262C41.389 17.8452 39.4639 15.5639 36.2443 13.7932C35.3105 13.2796 34.2786 12.8161 33.1647 12.4122C33.7697 14.82 34.1265 17.4651 34.1816 20.241ZM31.4429 11.8547C32.1644 14.3676 32.6006 17.2116 32.6633 20.241H29.3859C26.4918 19.1109 24.1863 16.8051 23.0566 13.9109V10.6343C26.086 10.697 28.93 11.1332 31.4429 11.8547ZM32.6603 10.6373C34.2365 11.1396 35.6868 11.754 36.976 12.4631C38.572 13.3409 39.9503 14.3827 41.0088 15.5565C39.1551 9.17363 34.124 4.14249 27.7411 2.28876C28.9149 3.34735 29.9567 4.72562 30.8346 6.32168C31.5436 7.61082 32.158 9.06106 32.6603 10.6373ZM23.0566 1.57142C25.4524 1.90857 27.7337 3.83363 29.5044 7.05327C30.018 7.98718 30.4815 9.01893 30.8854 10.133C28.4776 9.52788 25.8325 9.17114 23.0566 9.11596V1.57142Z" fill="white"/>
</svg>
