<svg width="62" height="80" viewBox="0 0 62 80" fill="none" xmlns="http://www.w3.org/2000/svg">
<mask id="mask0_1_13" style="mask-type:luminance" maskUnits="userSpaceOnUse" x="0" y="0" width="62" height="80">
<path d="M0 0H61.75V79.53H0V0Z" fill="#FEFEFE"/>
</mask>
<g mask="url(#mask0_1_13)">
<path fill-rule="evenodd" clip-rule="evenodd" d="M53.81 62.3C51.65 62.56 48.36 62.99 47.56 63.21C46.76 63.43 45.96 63.95 45.62 65.17C45.39 65.97 44.97 69.31 44.72 71.5C48.4532 69.215 51.576 66.058 53.82 62.3H53.81ZM30.9 75.38C35.6 75.38 40 74.16 43.84 72.01C43.6047 69.7184 43.2812 67.4367 42.87 65.17C42.7598 64.6957 42.52 64.2614 42.1775 63.9153C41.835 63.5693 41.4031 63.3251 40.93 63.21C39.72 62.87 32.72 62.06 32.72 62.06V61.57C32.72 61.57 39.72 60.76 40.93 60.42C41.73 60.2 42.53 59.68 42.87 58.46C43.2 57.3 43.94 50.81 44.02 50.12C39.22 51.02 35.92 53.25 31.8 55.38C27.42 57.65 23.14 59.28 17.58 59.28C12.67 59.28 8.3 57.66 5.13 55.68C6.68494 61.3272 10.0458 66.3101 14.6993 69.8674C19.3527 73.4247 25.0427 75.3608 30.9 75.38ZM4.56 17.08H7.43V14.82H8.45C11.12 14.82 12.81 13.42 12.81 11C12.81 8.34 11.01 7.38 8.06 7.38C6.92 7.38 5.54 7.46 4.56 7.58V17.08ZM13.95 17.08H16.81V13.35H19.8V17.08H22.67V7.58H19.8V11.36H16.81V7.58H13.95V17.08ZM24.79 17.08H27.66V7.58H24.79V17.08ZM29.78 17.08H34.96L35.39 15.18H32.64V7.58H29.78V17.08ZM36.42 17.08H39.28V7.58H36.42V17.08ZM41.44 17.08H44.31V14.82H45.33C48 14.82 49.69 13.42 49.69 11C49.69 8.34 47.89 7.38 44.94 7.38C43.8 7.38 42.43 7.46 41.44 7.58V17.08ZM30.89 21.28C28.62 21.28 26.42 21.56 24.32 22.1C24.43 23.05 24.75 25.7 24.91 26.24C25.1 26.92 25.54 27.21 25.98 27.33C26.65 27.52 30.42 27.95 30.42 27.95V28.22C30.42 28.22 26.65 28.67 25.98 28.86C25.54 28.98 25.1 29.26 24.91 29.94C24.76 30.47 24.46 32.89 24.34 33.94C26.57 34.24 28.96 34.52 28.96 34.52V35C28.96 35 21.96 35.81 20.76 36.15C19.95 36.37 19.16 36.89 18.81 38.11C18.49 39.23 17.79 45.37 17.69 46.29C22.62 45.39 26.83 42.79 29.99 41.25C34.49 39.05 38.62 37.25 44.24 37.25C49.13 37.25 53.44 38.84 56.6 40.81C55.0172 35.2059 51.6534 30.2693 47.017 26.7459C42.3805 23.2225 36.7233 21.3039 30.9 21.28H30.89ZM55.04 14.46C55.04 15.06 54.6 15.37 53.54 15.37C52.4144 15.3384 51.3063 15.0835 50.28 14.62L50.6 16.8C51.561 17.1195 52.5673 17.2816 53.58 17.28C55.98 17.28 57.94 16.48 57.94 14.1C57.94 10.92 53.43 11.52 53.43 10C53.43 9.5 53.93 9.25 54.76 9.25C55.66 9.25 56.65 9.45 57.31 9.73L57.08 7.66C56.2176 7.46218 55.3347 7.36818 54.45 7.38C52.13 7.38 50.55 8.31 50.55 10.25C50.55 13.58 55.04 12.91 55.04 14.45V14.46ZM44.47 50.04C44.53 50.59 45.29 57.29 45.62 58.46C45.7302 58.9343 45.97 59.3686 46.3125 59.7147C46.655 60.0607 47.0869 60.3049 47.56 60.42C48.42 60.66 52.21 61.14 54.32 61.4C55.9861 58.358 57.0521 55.0243 57.46 51.58C54.5554 50.4126 51.4601 49.7922 48.33 49.75C46.93 49.75 45.65 49.85 44.47 50.04ZM14.1 33.37C14.9 33.14 15.7 32.63 16.04 31.41C16.26 30.62 16.67 27.43 16.94 25.24C13.2901 27.4959 10.2291 30.5876 8.01 34.26C10.0541 34.0382 12.0889 33.738 14.11 33.36L14.1 33.37ZM4.33 44.94C7.22318 46.0795 10.3006 46.6794 13.41 46.71C14.73 46.71 15.98 46.59 17.17 46.39C17.07 45.42 16.37 39.24 16.05 38.12C15.9398 37.6457 15.7 37.2114 15.3575 36.8653C15.015 36.5193 14.5831 36.2751 14.11 36.16C13.27 35.92 9.62 35.46 7.49 35.2C5.82683 38.2162 4.75433 41.5219 4.33 44.94ZM23.38 29.94C23.318 29.6791 23.1854 29.4403 22.9967 29.2497C22.8079 29.0592 22.5703 28.9244 22.31 28.86C21.78 28.71 19.31 28.4 18.31 28.27C18.49 29.68 18.68 30.95 18.81 31.41C18.9202 31.8843 19.16 32.3186 19.5025 32.6647C19.845 33.0107 20.2769 33.2549 20.75 33.37C21.21 33.5 22.51 33.69 23.95 33.89C23.8097 32.5666 23.6196 31.249 23.38 29.94ZM23.38 26.24C23.53 25.71 23.84 23.22 23.96 22.19C21.81 22.78 19.76 23.62 17.86 24.69C17.96 25.6 18.11 26.78 18.26 27.9C19.24 27.79 21.76 27.48 22.31 27.33C22.75 27.21 23.19 26.92 23.38 26.24ZM4.32 51.68C7.71 53.86 12.42 54.94 16.37 54.94C22.35 54.94 25.95 53.14 29.89 51.15C35.32 48.42 39.82 45.53 46.88 45.57C50.6272 45.5651 54.3208 46.4602 57.65 48.18C57.65 47.04 57.57 45.92 57.43 44.82C54.05 42.66 49.35 41.55 45.42 41.55C39.44 41.55 35.85 43.39 31.9 45.38C26.83 47.92 21.98 50.98 14.94 50.98C10.65 50.98 4.12 48.32 4.12 48.33C4.12 49.45 4.19 50.6 4.32 51.68ZM61.75 1.71V48.31C61.75 65.51 47.9 79.53 30.88 79.53C13.56 79.53 0 65.51 0 48.3V1.71C4.02 1.21 16.91 0 30.88 0C44.53 0 57.6 1.13 61.75 1.71ZM38.18 67.12C38.03 66.6 37.68 63.63 37.68 63.63H37.48C37.48 63.63 37.14 66.6 36.98 67.13C36.84 67.65 36.5 67.87 36.15 67.97C35.63 68.11 32.69 68.47 32.69 68.47V68.67C32.69 68.67 35.63 69.03 36.15 69.17C36.5 69.27 36.85 69.49 36.99 70.02C37.14 70.54 37.48 73.52 37.48 73.52H37.68C37.68 73.52 38.03 70.54 38.18 70.02C38.33 69.49 38.67 69.27 39.02 69.17C39.54 69.03 42.47 68.67 42.47 68.67V68.47C42.47 68.47 39.54 68.11 39.02 67.97C38.67 67.87 38.32 67.65 38.18 67.12ZM47 11.04C47 9.84 46.33 9.17 44.91 9.17L44.44 9.18V13.11H44.91C46.41 13.11 47 12.27 47 11.04ZM8.04 13.11H7.57V9.18H8.04C9.45 9.18 10.12 9.85 10.12 11.04C10.12 12.27 9.53 13.11 8.04 13.11Z" fill="#D8D8D8"/>
</g>
</svg>
