<svg width="25" height="24" viewBox="0 0 25 24" fill="none" xmlns="http://www.w3.org/2000/svg">
<g clip-path="url(#clip0_802_833)">
<path fill-rule="evenodd" clip-rule="evenodd" d="M17.7183 6.54696C16.4793 5.36526 14.8258 4.7215 13.115 4.74795C9.98436 4.74795 7.32555 6.86 6.37753 9.704V9.70407C5.87487 11.1944 5.87486 12.8082 6.37753 14.2986H6.38193C7.33434 17.1382 9.98876 19.2503 13.1194 19.2503C14.7354 19.2503 16.1228 18.8369 17.198 18.1068V18.1039C18.4635 17.2661 19.3278 15.9477 19.5967 14.4573H13.115V9.83636H24.4338C24.5749 10.6389 24.641 11.459 24.641 12.2747C24.641 15.9246 23.3366 19.0104 21.0671 21.1004L21.0694 21.1022C19.0808 22.9365 16.3514 23.9991 13.115 23.9991C8.57777 23.9991 4.42859 21.4417 2.39148 17.3895V17.3895C0.68949 13.9987 0.689494 10.0039 2.39149 6.61313H2.39152L2.39148 6.6131C4.42859 2.55651 8.57777 -0.000900318 13.115 -0.000900318C16.0957 -0.036175 18.975 1.0838 21.1444 3.12091L17.7183 6.54696Z" fill="white"/>
</g>
<defs>
<clipPath id="clip0_802_833">
<rect width="24" height="24" fill="white" transform="translate(0.875)"/>
</clipPath>
</defs>
</svg>
