<svg width="120" height="121" viewBox="0 0 120 121" fill="none" xmlns="http://www.w3.org/2000/svg">
<path d="M65 42.5425H45C35.335 42.5425 27.5 34.7075 27.5 25.0425C27.5 15.3775 35.335 7.54248 45 7.54248H65V42.5425Z" fill="#E64A19"/>
<path d="M62.5 77.5425H45C35.335 77.5425 27.5 69.7075 27.5 60.0425C27.5 50.3775 35.335 42.5425 45 42.5425H62.5V77.5425Z" fill="#7C4DFF"/>
<path d="M45 112.542C35.335 112.542 27.5 104.707 27.5 95.0425C27.5 85.3775 35.335 77.5425 45 77.5425H62.5V95.0425C62.5 104.707 54.665 112.542 45 112.542Z" fill="#66BB6A"/>
<path d="M80 42.5425H62.5V7.54248L80 7.54248C89.665 7.54248 97.5 15.3775 97.5 25.0425C97.5 34.7075 89.665 42.5425 80 42.5425Z" fill="#FF7043"/>
<path d="M80 77.5425C89.665 77.5425 97.5 69.7075 97.5 60.0425C97.5 50.3775 89.665 42.5425 80 42.5425C70.335 42.5425 62.5 50.3775 62.5 60.0425C62.5 69.7075 70.335 77.5425 80 77.5425Z" fill="#29B6F6"/>
</svg>
