<svg width="730" height="213" viewBox="0 0 730 213" fill="none" xmlns="http://www.w3.org/2000/svg">
<path fill-rule="evenodd" clip-rule="evenodd" d="M320.838 149.189H297.238L305.556 101.157H267.765L259.447 149.189H235.847L255.131 37.8433H278.731L271.169 81.5079H308.959L316.521 37.8433H340.121L320.838 149.189ZM412.482 149.189L409.459 122.522H371.018L358.681 149.189H334.847L390.443 37.3754H419.293L436.316 149.189H412.482ZM407.378 102.872L404.427 78.4931C404.272 77.5836 404.091 76.0759 403.828 73.9968C403.59 71.9173 403.336 69.6304 403.072 67.1091C402.832 64.5879 402.619 62.0668 402.432 59.5455C402.275 56.9984 402.207 54.8411 402.284 53.0479C401.882 54.1654 401.367 55.491 400.789 57.0244C400.19 58.5319 399.522 60.1433 398.809 61.859C398.074 63.5481 397.335 65.2636 396.566 67.005C395.827 68.7205 395.101 70.3579 394.424 71.8655C393.769 73.399 393.171 74.7506 392.631 75.9198C392.09 77.0894 391.707 77.9472 391.457 78.4931L380.139 102.872H407.378ZM546.181 92.4501C544.556 101.833 541.856 110.072 538.054 117.168C534.282 124.237 529.539 130.163 523.881 134.92C518.202 139.65 511.659 143.211 504.201 145.602C496.77 147.993 488.558 149.189 479.565 149.189H450.272L469.556 37.8433H502.123C510.31 37.8433 517.463 39.0125 523.634 41.3519C529.804 43.691 534.82 47.1481 538.701 51.7484C542.557 56.3487 545.158 62.0408 546.5 68.8502C547.846 75.6342 547.73 83.5092 546.181 92.4501ZM522.464 93.1261C523.527 86.992 523.826 81.664 523.327 77.1936C522.848 72.7492 521.673 69.0322 519.812 66.1214C517.955 63.1842 515.418 61.027 512.209 59.5975C508.995 58.194 505.166 57.4922 500.722 57.4922H489.753L477.275 129.539H486.034C496.041 129.539 504.101 126.524 510.166 120.468C516.257 114.412 520.358 105.29 522.464 93.1261ZM623.555 149.189H559.461L578.744 37.8433H642.838L639.435 57.4922H598.941L594.782 81.5079H632.469L629.066 101.157H591.379L586.464 129.539H626.958L623.555 149.189ZM713.113 118.311C712.253 123.276 710.617 127.772 708.239 131.749C705.835 135.725 702.776 139.13 699.01 141.963C695.249 144.77 690.842 146.953 685.825 148.461C680.829 149.994 675.24 150.748 669.107 150.748C663.7 150.748 658.623 150.202 653.8 149.085C649.003 147.967 644.643 146.278 640.768 144.043L644.567 122.106C646.808 123.276 649.088 124.367 651.394 125.459C653.679 126.524 656.059 127.486 658.462 128.318C660.887 129.175 663.343 129.851 665.83 130.345C668.292 130.839 670.794 131.099 673.341 131.099C675.94 131.099 678.199 130.813 680.169 130.241C682.114 129.669 683.761 128.864 685.084 127.824C686.404 126.81 687.452 125.563 688.219 124.133C689.008 122.73 689.542 121.144 689.835 119.455C690.195 117.376 690.073 115.53 689.468 113.919C688.859 112.333 687.872 110.826 686.504 109.423C685.157 108.045 683.446 106.667 681.41 105.368C679.379 104.042 677.1 102.639 674.576 101.157C672.444 99.9617 670.076 98.4802 667.492 96.7387C664.878 95.0234 662.518 92.8922 660.391 90.3189C658.289 87.7458 656.668 84.653 655.582 81.0141C654.467 77.4015 654.365 73.0348 655.243 67.9666C656.107 62.9766 657.709 58.5319 660.026 54.6071C662.373 50.6566 665.289 47.3299 668.798 44.6269C672.338 41.8976 676.384 39.8446 680.972 38.4148C685.56 36.9855 690.542 36.2837 695.922 36.2837C698.625 36.2837 701.219 36.4656 703.733 36.8034C706.217 37.1673 708.675 37.6872 711.083 38.3369C713.492 38.9867 715.869 39.8184 718.249 40.7799C720.604 41.7418 723.035 42.8595 725.492 44.1328L714.699 62.4825C712.596 61.4169 710.627 60.4812 708.795 59.6496C706.96 58.8438 705.127 58.1682 703.355 57.5962C701.578 57.0505 699.805 56.6347 698.035 56.3487C696.291 56.0628 694.494 55.9328 692.675 55.9328C688.698 55.9328 685.504 56.9726 683.008 59.0777C680.533 61.2091 679.012 63.9902 678.404 67.4988C678.075 69.3964 678.099 71.0596 678.475 72.4891C678.873 73.9447 679.653 75.2963 680.836 76.5695C681.992 77.8432 683.587 79.1428 685.571 80.4423C687.551 81.7679 689.967 83.2753 692.824 84.939C696.293 86.966 699.442 89.0454 702.274 91.1506C705.106 93.2561 707.456 95.5953 709.324 98.1682C711.196 100.715 712.485 103.626 713.196 106.875C713.907 110.124 713.869 113.945 713.113 118.311Z" fill="#ED1C24"/>
<path fill-rule="evenodd" clip-rule="evenodd" d="M104.986 0.000259078C160.739 0.000259078 205.935 45.1963 205.935 100.949C205.935 156.701 160.739 201.897 104.986 201.897C49.2341 201.897 4.03799 156.701 4.03799 100.949C4.03799 45.1963 49.2341 0.000259078 104.986 0.000259078Z" fill="white"/>
<path fill-rule="evenodd" clip-rule="evenodd" d="M104.986 2.97937C159.094 2.97937 202.956 46.8418 202.956 100.949C202.956 155.056 159.094 198.919 104.986 198.919C50.8791 198.919 7.01654 155.056 7.01654 100.949C7.01654 46.8418 50.8791 2.97937 104.986 2.97937Z" fill="#ED1C24"/>
<path fill-rule="evenodd" clip-rule="evenodd" d="M172.787 39.5223H155.523C149.72 39.5223 149.14 39.9578 146.529 44.89L133.618 70.1324C131.732 74.0492 129.411 76.2252 123.463 76.2252H101.122C100.542 76.2252 95.7546 75.2098 98.9462 69.6972L103.878 59.9773C108.521 50.4028 102.283 39.5223 88.3561 39.5223H61.808C55.8604 39.5223 59.4869 47.9368 66.4502 47.9368H72.3983C81.3928 47.9368 77.4755 54.0297 74.2842 59.9773C71.3827 65.0552 42.369 122.648 41.2083 124.824C36.856 133.093 32.794 135.269 20.3185 135.269H13.1968C15.2634 140.793 17.8145 146.081 20.7975 151.081H29.4577C42.9492 151.081 56.2954 153.548 69.9318 126.71C72.8331 120.762 75.5899 115.394 78.0557 110.607C82.2629 102.628 86.6152 93.7785 87.1954 92.7632C88.2109 91.0225 89.5167 89.5717 92.418 89.5717H116.064C122.883 89.5717 122.157 92.0378 120.271 96.5354L105.039 126.275C93.0317 149.718 109.971 151.081 121.867 151.081H189.175C192.159 146.081 194.71 140.793 196.777 135.269H138.55C134.053 135.269 130.578 133.853 133.328 128.451L174.673 47.2112C176.123 43.8746 178.009 39.5223 172.787 39.5223Z" fill="white"/>
</svg>
