<svg width="206" height="37" viewBox="0 0 206 37" fill="none" xmlns="http://www.w3.org/2000/svg">
<mask id="mask0_304_312" style="mask-type:luminance" maskUnits="userSpaceOnUse" x="0" y="0" width="206" height="37">
<path d="M205.8 0.213623H0.799805V36.7136H205.8V0.213623Z" fill="white"/>
</mask>
<g mask="url(#mask0_304_312)">
<path d="M19.5863 6.07395C19.3959 6.20043 19.2211 6.26445 19.0635 6.26445C18.9059 6.26445 18.7311 6.202 18.5407 6.07395C17.6855 5.40875 16.7663 5.0746 15.7832 5.0746C14.8 5.0746 13.8886 5.43998 13.1442 6.1692C12.3998 6.89843 12.0268 7.88218 12.0268 9.11888V12.6853C12.0268 12.8118 12.0659 12.9164 12.1454 12.9945C12.2235 13.0742 12.328 13.1132 12.4544 13.1132L17.35 13.2553C17.5716 13.2553 17.7542 13.3349 17.8962 13.4926C18.0382 13.6519 18.11 13.8424 18.11 14.0626V16.8686C18.11 17.0903 18.0382 17.2808 17.8962 17.4401C17.7542 17.5994 17.5716 17.6774 17.35 17.6774L12.4061 17.8195C12.3109 17.8195 12.2235 17.8601 12.1439 17.9382C12.0643 18.0179 12.0253 18.1053 12.0253 18.2006L11.8833 35.5129C11.8833 35.7347 11.8037 35.9252 11.6461 36.0829C11.4869 36.2422 11.2965 36.3202 11.0749 36.3202H8.2705C8.0489 36.3202 7.8585 36.2422 7.69933 36.0829C7.54015 35.9252 7.46213 35.7347 7.46213 35.5129L7.3201 18.2006C7.3201 18.1053 7.27953 18.0179 7.2015 17.9382C7.12193 17.8601 7.03453 17.8195 6.93933 17.8195L1.99539 17.6774C1.77379 17.6774 1.5834 17.5994 1.42422 17.4401C1.26504 17.2824 1.18701 17.0919 1.18701 16.8686V14.0626C1.18701 13.8409 1.26504 13.6503 1.42422 13.4926C1.58184 13.3349 1.77223 13.2553 1.99539 13.2553L6.93933 13.1132C7.03453 13.1132 7.12193 13.0742 7.2015 12.9945C7.27953 12.9164 7.3201 12.8274 7.3201 12.7337V9.40463C7.3201 7.85093 7.6291 6.4081 8.2471 5.07615C8.8651 3.7442 9.78428 2.66677 11.0047 1.8423C12.2235 1.01783 13.6733 0.605591 15.354 0.605591C16.526 0.605591 17.6278 0.836693 18.6578 1.29577C19.6878 1.75641 20.5991 2.4138 21.3904 3.2695C21.548 3.42878 21.6276 3.61928 21.6276 3.83945C21.6276 4.09398 21.5324 4.3001 21.342 4.4578L19.5832 6.07553L19.5863 6.07395Z" fill="white" stroke="white" stroke-width="1.25" stroke-miterlimit="10"/>
<path d="M29.758 0.841351C29.9155 1.00062 29.9953 1.19113 29.9953 1.4113L30.1373 9.02203V27.8569L29.9953 35.5144C29.9953 35.7361 29.9155 35.9266 29.758 36.0844C29.5988 36.2436 29.4083 36.3216 29.1883 36.3216H26.384C26.1623 36.3216 25.972 36.2436 25.8128 36.0844C25.6536 35.9266 25.5756 35.7361 25.5756 35.5144L25.4336 27.8569V9.02203L25.5756 1.4113C25.5756 1.18957 25.6536 0.999064 25.8128 0.841351C25.9705 0.683641 26.1608 0.604004 26.384 0.604004H29.1883C29.41 0.604004 29.6003 0.683641 29.758 0.841351Z" fill="white" stroke="white" stroke-width="1.25" stroke-miterlimit="10"/>
<path d="M52.9564 14.4217C54.7619 15.4851 56.1884 16.9107 57.2339 18.7018C58.2797 20.4928 58.8024 22.4525 58.8024 24.5761C58.8024 26.6996 58.2797 28.6671 57.2339 30.4739C56.1884 32.2821 54.7619 33.7076 52.9564 34.7539C51.1509 35.8001 49.1844 36.3234 47.0622 36.3234C44.9397 36.3234 42.9812 35.8001 41.1912 34.7539C39.4012 33.7076 37.9827 32.2806 36.9369 30.4739C35.8914 28.6671 35.3687 26.7014 35.3687 24.5761C35.3687 22.4509 35.8914 20.4944 36.9369 18.7018C37.9827 16.9107 39.4012 15.4835 41.1912 14.4217C42.9812 13.3599 44.9382 12.829 47.0622 12.829C49.1862 12.829 51.1509 13.3599 52.9564 14.4217ZM43.5447 18.4878C42.4662 19.1218 41.6109 19.9791 40.9774 21.0565C40.3439 22.1355 40.0269 23.3082 40.0269 24.5761C40.0269 25.8441 40.3439 27.0261 40.9774 28.1191C41.6109 29.2139 42.4662 30.0774 43.5447 30.7111C44.6214 31.3469 45.7949 31.6621 47.0622 31.6621C48.3294 31.6621 49.5107 31.3451 50.6032 30.7111C51.6972 30.0774 52.5602 29.2139 53.1937 28.1191C53.8272 27.0246 54.1442 25.8441 54.1442 24.5761C54.1442 23.3082 53.8272 22.1355 53.1937 21.0565C52.5602 19.9791 51.6954 19.1234 50.6032 18.4878C49.5092 17.8539 48.3294 17.5369 47.0622 17.5369C45.7949 17.5369 44.6214 17.8539 43.5447 18.4878Z" fill="white" stroke="white" stroke-width="1.25" stroke-miterlimit="10"/>
<path d="M97.383 35.4676C97.383 35.6894 97.3035 35.8876 97.1457 36.0624C96.9867 36.2374 96.7807 36.3249 96.5277 36.3249H93.8655C93.644 36.3249 93.4457 36.2374 93.271 36.0624C93.0962 35.8891 93.0087 35.6909 93.0087 35.4676L92.8667 22.8163C92.8667 21.0721 92.344 19.7089 91.2982 18.7252C90.2527 17.743 88.9995 17.2511 87.5435 17.2511C86.0875 17.2511 84.8812 17.743 83.8357 18.7252C82.79 19.7089 82.2672 21.0721 82.2672 22.8163L82.1252 35.4676C82.1252 35.6894 82.0457 35.8876 81.888 36.0624C81.7287 36.2374 81.5227 36.3249 81.27 36.3249H78.6077C78.386 36.3249 78.188 36.2374 78.013 36.0624C77.8382 35.8891 77.751 35.6909 77.751 35.4676L77.5605 22.8163C77.5605 21.0721 77.0377 19.7089 75.9922 18.7252C74.9465 17.743 73.7105 17.2511 72.2842 17.2511C70.8577 17.2511 69.614 17.743 68.5527 18.7252C67.49 19.7089 66.961 21.0721 66.961 22.8163L66.819 35.4676C66.819 35.6894 66.7395 35.8876 66.5817 36.0624C66.4227 36.2374 66.2167 36.3249 65.9637 36.3249H63.3015C63.0797 36.3249 62.8817 36.2374 62.707 36.0624C62.532 35.8891 62.4447 35.6909 62.4447 35.4676L62.3027 22.2932L62.3495 14.1125C62.3495 13.8595 62.437 13.6534 62.6117 13.4941C62.785 13.3364 62.983 13.2568 63.2062 13.2568H66.059C66.2805 13.2568 66.471 13.3364 66.6287 13.4941C66.7862 13.6534 66.8815 13.8439 66.9142 14.0641V15.3008C67.5165 14.4763 68.3 13.858 69.2675 13.4457C70.2335 13.0335 71.3042 12.8274 72.4762 12.8274C73.9337 12.8274 75.368 13.1444 76.7787 13.7783C78.188 14.4123 79.3225 15.2852 80.1777 16.3939C81.9847 14.0157 84.4395 12.8274 87.5452 12.8274C89.7315 12.8274 91.57 13.2958 93.0587 14.2312C94.5475 15.1665 95.665 16.3954 96.4092 17.9179C97.1537 19.4403 97.5267 21.0737 97.5267 22.8163L97.3847 35.4676H97.383Z" fill="white" stroke="white" stroke-width="1.25" stroke-miterlimit="10"/>
<path d="M120.138 14.3063C121.943 15.3697 123.37 16.7954 124.415 18.5864C125.461 20.3774 125.984 22.3371 125.984 24.4608C125.984 26.5844 125.461 28.5519 124.415 30.3586C123.37 32.1669 121.943 33.5924 120.138 34.6386C118.332 35.6849 116.366 36.2079 114.243 36.2079C112.121 36.2079 110.162 35.6849 108.372 34.6386C106.582 33.5924 105.164 32.1651 104.118 30.3586C103.073 28.5519 102.55 26.5859 102.55 24.4608C102.55 22.3356 103.073 20.379 104.118 18.5864C105.164 16.7954 106.582 15.3682 108.372 14.3063C110.162 13.2445 112.119 12.7136 114.243 12.7136C116.367 12.7136 118.332 13.2445 120.138 14.3063ZM110.726 18.3725C109.647 19.0064 108.792 19.8637 108.159 20.9411C107.525 22.0201 107.208 23.1928 107.208 24.4608C107.208 25.7286 107.525 26.9109 108.159 28.0039C108.792 29.0984 109.647 29.9619 110.726 30.5959C111.803 31.2314 112.976 31.5469 114.243 31.5469C115.511 31.5469 116.692 31.2299 117.784 30.5959C118.878 29.9619 119.741 29.0984 120.375 28.0039C121.008 26.9091 121.325 25.7286 121.325 24.4608C121.325 23.1928 121.008 22.0201 120.375 20.9411C119.741 19.8637 118.877 19.008 117.784 18.3725C116.69 17.7385 115.511 17.4215 114.243 17.4215C112.976 17.4215 111.803 17.7385 110.726 18.3725Z" fill="white" stroke="white" stroke-width="1.25" stroke-miterlimit="10"/>
<path d="M154.594 9.49825C154.656 12.8914 154.689 16.0784 154.689 19.0577C154.689 22.0371 154.658 24.0998 154.594 25.146C154.499 27.2071 153.92 29.0856 152.859 30.7813C151.796 32.4788 150.387 33.8248 148.628 34.8241C146.869 35.8236 144.959 36.3233 142.901 36.3233C140.842 36.3233 138.82 35.8001 137.03 34.7538C135.24 33.7076 133.821 32.2806 132.775 30.4738C131.73 28.6671 131.207 26.7013 131.207 24.5761C131.207 22.4509 131.73 20.4943 132.775 18.7017C133.821 16.9107 135.24 15.4835 137.03 14.4217C138.82 13.3598 140.777 12.8289 142.901 12.8289C144.137 12.8289 145.412 13.1225 146.727 13.708C148.041 14.2952 149.032 15.0322 149.698 15.9191C149.761 15.9831 149.825 15.9988 149.889 15.966C149.951 15.9347 149.984 15.8879 149.984 15.8239L150.031 2.88686C150.031 2.6339 150.126 2.41061 150.316 2.22167C150.507 2.03116 150.728 1.93591 150.981 1.93591H153.5C153.753 1.93591 153.976 2.03116 154.165 2.22167C154.355 2.41217 154.45 2.6339 154.45 2.88686C154.482 3.90183 154.528 6.1051 154.592 9.49825H154.594ZM148.937 21.0799C148.303 20.0181 147.456 19.1702 146.393 18.5346C145.33 17.9007 144.166 17.5837 142.899 17.5837C141.632 17.5837 140.466 17.9007 139.405 18.5346C138.342 19.1686 137.495 20.0165 136.861 21.0799C136.228 22.1433 135.911 23.3081 135.911 24.5761C135.911 25.8441 136.228 27.0183 136.861 28.0956C137.495 29.1746 138.35 30.0226 139.428 30.6408C140.505 31.2593 141.663 31.5683 142.899 31.5683C144.135 31.5683 145.33 31.2516 146.393 30.6176C147.454 29.9836 148.302 29.1356 148.937 28.0723C149.571 27.0103 149.887 25.8456 149.887 24.5761C149.887 23.3066 149.571 22.1433 148.937 21.0799Z" fill="white" stroke="white" stroke-width="1.25" stroke-miterlimit="10"/>
<path d="M165.908 7.78532C165.908 8.57857 165.615 9.26717 165.03 9.85429C164.443 10.4414 163.737 10.7334 162.915 10.7334C162.093 10.7334 161.386 10.4477 160.8 9.87772C160.214 9.30622 159.922 8.60979 159.922 7.78532C159.922 6.96084 160.214 6.25662 160.8 5.66949C161.387 5.08237 162.091 4.78882 162.915 4.78882C163.739 4.78882 164.443 5.08237 165.03 5.66949C165.615 6.25662 165.908 6.96242 165.908 7.78532ZM164.291 12.8274H161.534C161.312 12.8274 161.114 12.907 160.939 13.0647C160.765 13.224 160.677 13.4301 160.677 13.6831L160.535 21.2938V27.8569L160.677 35.5144C160.677 35.7361 160.765 35.9266 160.939 36.0844C161.113 36.2436 161.311 36.3216 161.534 36.3216H164.291C164.513 36.3216 164.703 36.2436 164.863 36.0844C165.02 35.9266 165.1 35.7361 165.1 35.5144L165.29 27.8569V21.2938L165.1 13.6831C165.1 13.4301 165.02 13.224 164.863 13.0647C164.703 12.907 164.513 12.8274 164.291 12.8274Z" fill="white" stroke="white" stroke-width="1.25" stroke-miterlimit="10"/>
<path d="M194.713 28.9047C194.713 30.4912 194.682 31.8854 194.618 33.0894C194.554 34.2949 194.507 35.0554 194.476 35.3724C194.476 35.6269 194.381 35.8487 194.191 36.0374C194 36.2264 193.763 36.3232 193.477 36.3232H190.959C190.737 36.3232 190.531 36.2279 190.341 36.0374C190.15 35.8469 190.04 35.6254 190.008 35.3724L189.961 33.2799C189.961 33.2174 189.938 33.1692 189.89 33.1379C189.843 33.1067 189.787 33.1222 189.723 33.1847C189.089 34.0732 188.106 34.8179 186.776 35.4207C185.445 36.0234 184.162 36.3249 182.926 36.3249C180.802 36.3249 178.838 35.8017 177.032 34.7557C175.225 33.7094 173.8 32.2822 172.754 30.4754C171.709 28.6689 171.186 26.7029 171.186 24.5777C171.186 22.4525 171.709 20.496 172.754 18.7034C173.8 16.9123 175.226 15.4851 177.032 14.4233C178.838 13.3615 180.802 12.8306 182.926 12.8306C185.05 12.8306 186.887 13.3302 188.63 14.3296C190.373 15.329 191.775 16.6765 192.838 18.3723C193.899 20.0697 194.478 21.9481 194.573 24.0078C194.668 25.7519 194.715 27.3852 194.715 28.9062L194.713 28.9047ZM186.419 30.6177C187.48 29.9837 188.32 29.1279 188.938 28.0489C189.556 26.9714 189.865 25.7972 189.865 24.5293C189.865 23.2614 189.548 22.0965 188.914 21.0331C188.281 19.9713 187.433 19.1312 186.371 18.5128C185.308 17.8945 184.144 17.5853 182.876 17.5853C181.609 17.5853 180.492 17.9023 179.431 18.5363C178.368 19.1702 177.521 20.0181 176.887 21.0815C176.253 22.1449 175.937 23.3098 175.937 24.5777C175.937 25.8457 176.253 27.0122 176.887 28.0739C177.521 29.1372 178.368 29.9852 179.431 30.6192C180.492 31.2532 181.656 31.5702 182.925 31.5702C184.194 31.5702 185.356 31.2532 186.419 30.6192V30.6177Z" fill="white" stroke="white" stroke-width="1.25" stroke-miterlimit="10"/>
<path d="M205.41 33.3752C205.41 34.1684 205.116 34.8572 204.531 35.4442C203.944 36.0314 203.239 36.3234 202.416 36.3234C201.594 36.3234 200.887 36.0377 200.302 35.4677C199.715 34.8977 199.423 34.1997 199.423 33.3752C199.423 32.5507 199.715 31.8449 200.302 31.2579C200.889 30.6722 201.593 30.3787 202.416 30.3787C203.24 30.3787 203.944 30.6722 204.531 31.2579C205.116 31.8449 205.41 32.5507 205.41 33.3752Z" fill="white" stroke="white" stroke-width="1.25" stroke-miterlimit="10"/>
</g>
</svg>
