<svg width="162" height="32" viewBox="0 0 162 32" fill="none" xmlns="http://www.w3.org/2000/svg">
<path fill-rule="evenodd" clip-rule="evenodd" d="M15.4667 5.36497C15.4667 4.64269 15.2985 3.93034 14.9755 3.28431C14.6963 2.72589 14.5323 2.11699 14.4934 1.49387L14.4 0L14.3067 1.49382C14.2677 2.11695 14.1037 2.72587 13.8245 3.28429C13.5015 3.93033 13.3333 4.64271 13.3333 5.36499V26.635C13.3333 27.3573 13.5015 28.0697 13.8245 28.7157C14.1037 29.2741 14.2677 29.8831 14.3067 30.5062L14.4 32L14.4934 30.5061C14.5323 29.883 14.6963 29.2741 14.9755 28.7157C15.2985 28.0697 15.4667 27.3573 15.4667 26.635V5.36497ZM9.64213 5.41765C9.9652 6.06367 10.1333 6.77607 10.1333 7.49833V24.5017C10.1333 25.224 9.9652 25.9363 9.64213 26.5824C9.36293 27.1408 9.199 27.7497 9.16 28.3728L9.06667 29.8667L8.97333 28.3728C8.93433 27.7497 8.7704 27.1408 8.4912 26.5824C8.16813 25.9363 8 25.224 8 24.5017V7.49833C8 6.77607 8.16813 6.06367 8.4912 5.41765C8.7704 4.85922 8.93433 4.25031 8.97333 3.62719L9.06667 2.13334L9.16 3.62719C9.199 4.25031 9.36293 4.85922 9.64213 5.41765ZM7.46667 9.63167C7.46667 8.90933 7.29853 8.197 6.97547 7.551C6.69627 6.99253 6.53231 6.38363 6.49337 5.76051L6.4 4.26666L6.30663 5.76051C6.26769 6.38363 6.10373 6.99253 5.82451 7.551C5.5015 8.197 5.33333 8.90933 5.33333 9.63167V22.3683C5.33333 23.0906 5.5015 23.803 5.82451 24.449C6.10373 25.0075 6.26769 25.6163 6.30663 26.2395L6.4 27.7333L6.49337 26.2395C6.53231 25.6163 6.69627 25.0075 6.97547 24.449C7.29853 23.803 7.46667 23.0906 7.46667 22.3683V9.63167ZM4.30882 11.8176C4.63183 12.4637 4.8 13.176 4.8 13.8983V18.1017C4.8 18.8239 4.63183 19.5363 4.30882 20.1823C4.02961 20.7408 3.86565 21.3497 3.8267 21.9728L3.73333 23.4667L3.63997 21.9728C3.60102 21.3497 3.43706 20.7408 3.15785 20.1823C2.83483 19.5363 2.66667 18.8239 2.66667 18.1017V13.8983C2.66667 13.176 2.83483 12.4637 3.15785 11.8176C3.43706 11.2592 3.60102 10.6503 3.63997 10.0272L3.73333 8.53333L3.8267 10.0272C3.86565 10.6503 4.02961 11.2592 4.30882 11.8176ZM2.13323 16L2.13333 16.0317V15.9683L2.13323 16ZM0 16.0317L0.000107615 16C0.00494617 16.7115 0.172885 17.4125 0.491181 18.049C0.770393 18.6075 0.934353 19.2163 0.9733 19.8395L1.06667 21.3333L1.16003 19.8395C1.19898 19.2163 1.36294 18.6075 1.64215 18.049C1.96045 17.4125 2.12839 16.7115 2.13323 16C2.12839 15.2885 1.96045 14.5875 1.64215 13.951C1.36294 13.3925 1.19898 12.7837 1.16003 12.1605L1.06667 10.6667L0.9733 12.1605C0.934353 12.7837 0.770393 13.3925 0.491181 13.951C0.172885 14.5875 0.00494618 15.2885 0.000107615 16L0 15.9683V16.0317ZM12.3088 3.28431C12.6319 3.93033 12.8 4.6427 12.8 5.36498V26.635C12.8 27.3573 12.6319 28.0697 12.3088 28.7157C12.0296 29.2741 11.8657 29.883 11.8267 30.5061L11.7333 32L11.64 30.5061C11.601 29.883 11.4371 29.2741 11.1579 28.7157C10.8348 28.0697 10.6667 27.3573 10.6667 26.635V5.36498C10.6667 4.6427 10.8348 3.93033 11.1579 3.28431C11.4371 2.72588 11.601 2.11697 11.64 1.49385L11.7333 0L11.8267 1.49385C11.8657 2.11697 12.0296 2.72588 12.3088 3.28431ZM17.6421 3.28431C17.9652 3.93033 18.1333 4.6427 18.1333 5.36498V26.635C18.1333 27.3573 17.9652 28.0697 17.6421 28.7157C17.3629 29.2741 17.199 29.883 17.16 30.5061L17.0667 32L16.9733 30.5061C16.9343 29.883 16.7704 29.2741 16.4912 28.7157C16.1681 28.0697 16 27.3573 16 26.635V5.36498C16 4.6427 16.1681 3.93033 16.4912 3.28431C16.7704 2.72588 16.9343 2.11697 16.9733 1.49385L17.0667 0L17.16 1.49385C17.199 2.11697 17.3629 2.72588 17.6421 3.28431ZM20.8 7.49833C20.8 6.77607 20.6319 6.06367 20.3088 5.41765C20.0296 4.85922 19.8657 4.25031 19.8267 3.62719L19.7333 2.13334L19.64 3.62719C19.601 4.25031 19.4371 4.85922 19.1579 5.41765C18.8348 6.06367 18.6667 6.77607 18.6667 7.49833V24.5017C18.6667 25.224 18.8348 25.9363 19.1579 26.5824C19.4371 27.1408 19.601 27.7497 19.64 28.3728L19.7333 29.8667L19.8267 28.3728C19.8657 27.7497 20.0296 27.1408 20.3088 26.5824C20.6319 25.9363 20.8 25.224 20.8 24.5017V7.49833ZM22.9755 7.551C23.2985 8.197 23.4667 8.90933 23.4667 9.63167V22.3683C23.4667 23.0906 23.2985 23.803 22.9755 24.449C22.6963 25.0075 22.5323 25.6163 22.4933 26.2395L22.4 27.7333L22.3067 26.2395C22.2677 25.6163 22.1037 25.0075 21.8245 24.449C21.5015 23.803 21.3333 23.0906 21.3333 22.3683V9.63167C21.3333 8.90933 21.5015 8.197 21.8245 7.551C22.1037 6.99253 22.2677 6.38363 22.3067 5.76051L22.4 4.26666L22.4933 5.76051C22.5323 6.38363 22.6963 6.99253 22.9755 7.551ZM26.1333 13.8983C26.1333 13.176 25.9652 12.4637 25.6421 11.8176C25.3629 11.2592 25.199 10.6503 25.16 10.0272L25.0667 8.53333L24.9733 10.0272C24.9343 10.6503 24.7704 11.2592 24.4912 11.8176C24.1682 12.4637 24 13.176 24 13.8983V18.1017C24 18.8239 24.1682 19.5363 24.4912 20.1823C24.7704 20.7408 24.9343 21.3497 24.9733 21.9728L25.0667 23.4667L25.16 21.9728C25.199 21.3497 25.3629 20.7408 25.6421 20.1823C25.9652 19.5363 26.1333 18.8239 26.1333 18.1017V13.8983ZM28.7999 16C28.7999 16.0105 28.8 16.0211 28.8 16.0317V15.9683C28.8 15.9789 28.7999 15.9895 28.7999 16ZM26.6668 16C26.6716 16.7115 26.8395 17.4125 27.1579 18.049C27.4371 18.6075 27.601 19.2163 27.64 19.8395L27.7333 21.3333L27.8267 19.8395C27.8657 19.2163 28.0296 18.6075 28.3088 18.049C28.6271 17.4125 28.7951 16.7115 28.7999 16C28.7951 15.2885 28.6271 14.5875 28.3088 13.951C28.0296 13.3925 27.8657 12.7837 27.8267 12.1605L27.7333 10.6667L27.64 12.1605C27.601 12.7837 27.4371 13.3925 27.1579 13.951C26.8395 14.5875 26.6716 15.2885 26.6668 16ZM26.6668 16C26.6667 15.9895 26.6667 15.9789 26.6667 15.9683V16.0317C26.6667 16.0211 26.6667 16.0105 26.6668 16Z" fill="white"/>
<path d="M48.048 24C52.296 24 54.432 20.496 54.432 15.6C54.432 10.728 52.296 7.224 48.048 7.224H42.624V24H48.048ZM44.856 9.192H47.664C50.808 9.192 52.104 11.616 52.104 15.624C52.104 19.608 50.808 22.032 47.664 22.032H44.856V9.192Z" fill="white"/>
<path d="M68.2599 16.392V14.424H61.0599V9.192H68.6199V7.224H58.8279V24H69.0519V22.032H61.0599V16.392H68.2599Z" fill="white"/>
<path d="M85.5439 7.224H83.2159L78.8719 21.696L74.5039 7.224H72.1519L77.5519 24H80.1439L85.5439 7.224Z" fill="white"/>
<path d="M99.9958 12.072V11.76C99.9958 8.976 97.8838 6.84 94.3798 6.84C90.7798 6.84 88.5238 8.808 88.5238 11.616C88.5238 13.92 89.8438 15.432 92.2678 16.008L95.7478 16.824C97.4038 17.208 98.2198 18.048 98.2198 19.536C98.2198 21.24 97.0918 22.44 94.5718 22.44C91.7398 22.44 90.2518 20.88 90.2278 18.648H88.0678C88.1158 22.224 90.3478 24.432 94.5238 24.432C98.0518 24.432 100.476 22.56 100.476 19.224C100.476 17.064 99.1078 15.336 96.4918 14.736L93.0598 13.944C91.4998 13.584 90.7798 12.792 90.7798 11.4C90.7798 9.888 92.0038 8.736 94.3078 8.736C96.6358 8.736 97.7638 10.152 97.8358 12.072H99.9958Z" fill="white"/>
<path d="M109.48 6.84C105.352 6.84 102.952 10.08 102.952 15.648C102.952 21.216 105.352 24.432 109.48 24.432C113.608 24.432 116.008 21.216 116.008 15.648C116.008 10.08 113.608 6.84 109.48 6.84ZM109.48 8.808C112.12 8.808 113.68 11.352 113.68 15.648C113.68 19.92 112.12 22.464 109.48 22.464C106.84 22.464 105.28 19.92 105.28 15.648C105.28 11.352 106.84 8.808 109.48 8.808Z" fill="white"/>
<path d="M128.324 7.224V20.76H128.3L121.628 7.224H119.204V24H121.268V10.584H121.292L127.892 24H130.388V7.224H128.324Z" fill="white"/>
<path d="M135.432 24H144.816V22.128H141.24V9.096H144.816V7.224H135.432V9.096H138.984V22.128H135.432V24Z" fill="white"/>
<path d="M161.812 11.904C161.308 9.024 159.436 6.84 156.1 6.84C151.132 6.84 149.308 10.848 149.308 15.672C149.308 21.048 151.636 24.432 156.004 24.432C159.292 24.432 161.524 22.368 161.98 18.312H159.7C159.22 21.024 158.26 22.464 156.028 22.464C153.172 22.464 151.636 20.184 151.636 15.648C151.636 11.616 152.836 8.808 156.028 8.808C158.164 8.808 159.052 10.08 159.532 11.904H161.812Z" fill="white"/>
</svg>
