<svg width="205" height="112" viewBox="0 0 205 112" fill="none" xmlns="http://www.w3.org/2000/svg">
<path d="M21.3507 58.1055H3.21869C1.49511 58.1055 0.0978699 59.5027 0.0978699 61.2263V108.616C0.0978699 110.34 1.49511 111.737 3.21869 111.737H21.3507C23.0743 111.737 24.4715 110.34 24.4715 108.616V61.2263C24.4715 59.5027 23.0743 58.1055 21.3507 58.1055Z" fill="white"/>
<path d="M2.68404 30.0837C1.19348 30.3476 0.107193 31.6431 0.107193 33.1568V45.2234C0.107193 46.9469 1.50443 48.3442 3.22802 48.3442H21.3064C23.0265 48.3442 24.4223 46.9523 24.4272 45.2322L24.4703 29.9578C24.4758 28.013 22.7205 26.5369 20.8055 26.8759L2.68404 30.0837Z" fill="white"/>
<path d="M175.622 3.33664C175.622 1.39616 177.374 -0.0738699 179.285 0.263287L197.409 3.46099C198.901 3.72412 199.988 5.01995 199.988 6.53435V21.4853C199.988 22.9292 201.024 24.1651 202.445 24.4178C203.867 24.6706 204.903 25.907 204.902 27.3512L204.896 44.9819C204.896 46.4227 203.861 47.6552 202.442 47.9051C201.023 48.1552 199.988 49.3883 199.988 50.8294V108.627C199.988 110.351 198.591 111.748 196.867 111.748H178.743C177.019 111.748 175.622 110.351 175.622 108.627V3.33664Z" fill="white"/>
<path d="M162.771 33.7166H144.631C142.907 33.7166 141.51 35.1139 141.51 36.8374V108.609C141.51 110.332 142.907 111.729 144.631 111.729H162.771C164.494 111.729 165.892 110.332 165.892 108.609V36.8374C165.892 35.1139 164.494 33.7166 162.771 33.7166Z" fill="white"/>
<path d="M144.104 5.13338C142.613 5.39651 141.526 6.69235 141.526 8.20674V20.8648C141.526 22.5883 142.923 23.9856 144.647 23.9856H162.771C164.494 23.9856 165.892 22.5883 165.892 20.8648V5.00904C165.892 3.06856 164.139 1.59853 162.228 1.93568L144.104 5.13338Z" fill="white"/>
<path d="M58.7532 64.0791L58.6511 108.628C58.6472 110.349 57.2511 111.742 55.5303 111.742H37.3834C35.6598 111.742 34.2625 110.345 34.2625 108.621V65.5224C34.1913 58.7822 35.4369 52.0929 37.9295 45.83C40.2027 40.044 43.6391 34.786 48.0261 30.3815C52.4132 25.9771 57.6574 22.5198 63.4344 20.2237C76.0474 15.3445 90.0267 15.3445 102.64 20.2237C108.419 22.5166 113.665 25.9728 118.052 30.3776C122.439 34.7825 125.875 40.0421 128.145 45.83C130.641 52.0918 131.887 58.7818 131.812 65.5224V108.621C131.812 110.345 130.414 111.742 128.691 111.742H110.465C108.742 111.742 107.344 110.345 107.344 108.621C107.344 94.2421 107.344 79.716 107.344 65.5224C107.407 61.7425 106.576 57.9626 105.214 54.4357C104.011 51.3503 102.193 48.5419 99.87 46.1812C97.6463 43.9504 94.9917 42.1956 92.068 41.0239C89.1795 39.846 86.0902 39.2393 82.9708 39.2373C79.8192 39.2198 76.6954 39.827 73.7799 41.0239C70.895 42.2125 68.2768 43.966 66.0793 46.1812C63.7588 48.5422 61.9431 51.3506 60.7427 54.4357C59.5257 57.5106 58.8525 60.7736 58.7532 64.0791Z" fill="white"/>
</svg>
