<svg width="144" height="32" viewBox="0 0 144 32" fill="none" xmlns="http://www.w3.org/2000/svg">
<path d="M12.0176 23.8506C13.5561 23.8506 15.0796 23.5445 16.501 22.9498C17.9225 22.355 19.214 21.4833 20.3019 20.3844C21.3899 19.2855 22.2528 17.9809 22.8416 16.5451C23.4304 15.1093 23.7334 13.5705 23.7334 12.0164C23.7334 10.4623 23.4304 8.9234 22.8416 7.4876C22.2528 6.0518 21.3899 4.74721 20.3019 3.6483C19.214 2.54939 17.9225 1.67768 16.501 1.08296C15.0796 0.488232 13.5561 0.182131 12.0176 0.182131V23.8506Z" fill="#FDD33C"/>
<path d="M0.182617 23.8506C1.72117 23.8506 3.24466 23.5445 4.6661 22.9498C6.08753 22.355 7.37908 21.4833 8.46701 20.3844C9.55493 19.2855 10.4179 17.9809 11.0067 16.5451C11.5955 15.1093 11.8985 13.5705 11.8985 12.0164C11.8985 10.4623 11.5955 8.92339 11.0067 7.4876C10.4179 6.0518 9.55493 4.74721 8.46701 3.6483C7.37908 2.54939 6.08753 1.67768 4.6661 1.08296C3.24466 0.48823 1.72117 0.182129 0.182617 0.182129L0.182617 23.8506Z" fill="#FDD33C"/>
<path d="M38.3091 24.4218C45.6908 24.4218 50.1738 19.6692 50.1738 12.6245C50.1738 5.54611 45.6908 0.827178 38.3091 0.827178H30.7588V24.4218H38.3091ZM33.6913 3.52371H38.3091C44.0392 3.52371 47.1739 7.09661 47.1739 12.6245C47.1739 18.1187 44.0392 21.7253 38.3091 21.7253H33.6913V3.52371Z" fill="white"/>
<path d="M54.8775 4.33267C55.8887 4.33267 56.6639 3.59112 56.6639 2.54622C56.6639 1.50131 55.8887 0.759766 54.8775 0.759766C53.8663 0.759766 53.091 1.50131 53.091 2.54622C53.091 3.59112 53.8663 4.33267 54.8775 4.33267ZM53.4618 24.4218H56.2257V7.23144H53.4618V24.4218Z" fill="white"/>
<path d="M73.5623 10.1976C72.4837 8.27634 70.5624 7.0292 67.6636 7.0292C62.911 7.0292 59.4055 10.5684 59.4055 15.8266C59.4055 21.4219 62.911 24.6241 67.6636 24.6241C70.5624 24.6241 72.4162 23.4106 73.5623 21.4556V23.478C73.5623 27.2195 71.6073 28.9048 68.0007 28.9048C65.1356 28.9048 63.2143 27.6914 62.7424 25.5341H59.9111C60.3493 29.3093 63.4166 31.3654 67.7984 31.3654C73.6971 31.3654 76.3262 28.534 76.3262 23.5792V7.23144H73.933L73.5623 10.1976ZM67.9333 22.1635C64.5289 22.1635 62.2368 19.5681 62.2368 15.8266C62.2368 12.0852 64.5289 9.48978 67.9333 9.48978C71.3039 9.48978 73.596 12.1189 73.596 15.894C73.596 19.5681 71.3039 22.1635 67.9333 22.1635Z" fill="white"/>
<path d="M81.507 4.33267C82.5182 4.33267 83.2935 3.59112 83.2935 2.54622C83.2935 1.50131 82.5182 0.759766 81.507 0.759766C80.4958 0.759766 79.7206 1.50131 79.7206 2.54622C79.7206 3.59112 80.4958 4.33267 81.507 4.33267ZM80.0914 24.4218H82.8553V7.23144H80.0914V24.4218Z" fill="white"/>
<path d="M100.192 9.86055C99.1469 8.20893 97.1919 7.0292 94.2932 7.0292C89.5405 7.0292 86.035 10.5684 86.035 15.8266C86.035 21.4219 89.5405 24.6241 94.2932 24.6241C97.1919 24.6241 99.0458 23.2421 100.192 21.6579L100.563 24.4218H102.956V0.827178H100.192V9.86055ZM94.5628 22.1635C91.1585 22.1635 88.8664 19.5681 88.8664 15.8266C88.8664 12.0852 91.1585 9.48978 94.5628 9.48978C97.9335 9.48978 100.226 12.1189 100.226 15.894C100.226 19.5681 97.9335 22.1635 94.5628 22.1635Z" fill="white"/>
<path d="M114.642 24.6241C119.664 24.6241 123.17 21.0512 123.17 15.8266C123.17 10.6021 119.664 7.0292 114.642 7.0292C109.62 7.0292 106.114 10.6021 106.114 15.8266C106.114 21.0512 109.62 24.6241 114.642 24.6241ZM114.642 22.1635C111.238 22.1635 108.946 19.5006 108.946 15.8266C108.946 12.1526 111.238 9.48978 114.642 9.48978C118.046 9.48978 120.338 12.1526 120.338 15.8266C120.338 19.5006 118.046 22.1635 114.642 22.1635Z" fill="white"/>
<path d="M135.002 7.0292C132.103 7.0292 130.249 8.41117 129.103 9.99538L128.732 7.23144H126.339V31.1631H129.103V21.7927C130.148 23.4443 132.103 24.6241 135.002 24.6241C139.754 24.6241 143.26 21.0849 143.26 15.8266C143.26 10.2313 139.754 7.0292 135.002 7.0292ZM134.732 22.1635C131.362 22.1635 129.069 19.5344 129.069 15.7592C129.069 12.0852 131.362 9.48978 134.732 9.48978C138.137 9.48978 140.429 12.0852 140.429 15.8266C140.429 19.5681 138.137 22.1635 134.732 22.1635Z" fill="white"/>
</svg>
