<svg width="237" height="53" viewBox="0 0 237 53" fill="none" xmlns="http://www.w3.org/2000/svg">
<g clip-path="url(#clip0_304_302)">
<path d="M100.923 41.0234H103.292V11.9034H100.923V41.0234Z" fill="white"/>
<path d="M117.412 20.0986C111.263 20.0986 107.066 24.5082 107.066 30.7482C107.066 37.0714 111.387 41.481 117.579 41.481C121.194 41.481 124.476 40.025 126.429 37.6122L124.809 36.1978C123.396 38.0282 120.487 39.2346 117.62 39.2346C113.008 39.2346 109.85 36.3642 109.476 31.6634H127.759C128.341 24.7162 124.185 20.0986 117.412 20.0986ZM117.454 22.2618C122.191 22.2618 125.39 25.1738 125.473 29.5834H109.476C109.933 25.1322 112.925 22.2618 117.454 22.2618Z" fill="white"/>
<path d="M155.098 20.1819C151.816 20.1819 149.032 21.8875 147.536 24.8827C146.414 21.8875 143.796 20.1819 140.264 20.1819C137.397 20.1819 134.987 21.5131 133.491 23.9259L133.45 20.4731H131.289V41.0235H133.658V29.5003C133.658 25.3819 136.4 22.3867 140.181 22.3867C144.004 22.3867 146.123 24.7995 146.123 29.2091V41.0235H148.492V29.5003C148.492 25.3819 151.234 22.3867 155.057 22.3867C158.88 22.3867 160.998 24.7995 160.998 29.2091V41.0235H163.368V29.0427C163.368 23.5099 160.251 20.1819 155.098 20.1819Z" fill="white"/>
<path d="M178.901 20.0986C175.12 20.0986 171.962 21.8458 170.424 24.5498L170.383 20.473H168.223V50.9242H170.591V37.1962C172.17 39.7754 175.245 41.3978 178.901 41.3978C184.968 41.3978 189.207 36.9882 189.207 30.7482C189.207 24.5082 184.968 20.0986 178.901 20.0986ZM178.693 39.193C173.957 39.193 170.591 35.8234 170.591 30.7482C170.591 25.673 173.957 22.3034 178.693 22.3034C183.472 22.3034 186.837 25.673 186.837 30.7482C186.837 35.8234 183.472 39.193 178.693 39.193Z" fill="white"/>
<path d="M194.186 16.0219C195.307 16.0219 196.096 15.2315 196.096 14.1499C196.096 13.1099 195.307 12.3195 194.186 12.3195C193.106 12.3195 192.315 13.1099 192.315 14.1499C192.315 15.2315 193.106 16.0219 194.186 16.0219ZM193.023 41.0235H195.391V20.4731H193.023V41.0235Z" fill="white"/>
<path d="M209.593 20.2235C206.643 20.2235 204.192 21.8875 202.737 24.7579L202.696 20.4731H200.534V41.0235H202.904V30.5819C202.904 25.9643 205.688 22.5115 209.51 22.5115C210.757 22.5115 211.92 22.8443 213.001 23.5099L214.04 21.4715C212.877 20.6811 211.256 20.2235 209.593 20.2235Z" fill="white"/>
<path d="M224.045 20.0986C217.895 20.0986 213.698 24.5082 213.698 30.7482C213.698 37.0714 218.019 41.481 224.21 41.481C227.826 41.481 231.107 40.025 233.061 37.6122L231.44 36.1978C230.027 38.0282 227.119 39.2346 224.251 39.2346C219.64 39.2346 216.482 36.3642 216.107 31.6634H234.391C234.973 24.7162 230.818 20.0986 224.045 20.0986ZM224.085 22.2618C228.823 22.2618 232.023 25.1738 232.106 29.5834H216.107C216.565 25.1322 219.557 22.2618 224.085 22.2618Z" fill="white"/>
<path fill-rule="evenodd" clip-rule="evenodd" d="M33.9344 11.7551C34.6602 10.9753 35.8888 10.9753 36.6144 11.7551L55.7386 32.3025C56.3915 33.3334 57.409 34.1353 58.6696 34.491C61.3894 35.2584 64.2117 33.6587 64.9733 30.918L70.2093 12.0745C70.9709 9.33384 69.3834 6.48998 66.6635 5.72259C63.9437 4.9552 61.1214 6.55488 60.3598 9.29555L57.5982 19.2342L44.075 4.70454C39.3086 -0.41666 31.2403 -0.416648 26.4739 4.70456L12.8361 19.3576L10.0401 9.29555C9.27858 6.55488 6.45634 4.9552 3.7365 5.72259C1.01666 6.48998 -0.570846 9.33384 0.190709 12.0745L5.42678 30.918C6.18834 33.6587 9.01058 35.2584 11.7304 34.491C12.5711 34.2537 13.3036 33.8182 13.8919 33.2486C14.0256 33.132 14.1546 33.0072 14.2783 32.8744L33.9344 11.7551ZM8.10662 41.7571C5.28218 41.7571 2.99251 44.0643 2.99251 46.9104C2.99251 49.7564 5.28218 52.0636 8.10662 52.0636C8.10662 52.0636 59.509 52.0636 62.3333 52.0636C65.1578 52.0636 67.4475 49.7564 67.4475 46.9104C67.4475 44.0643 65.1578 41.7571 62.3333 41.7571H8.10662Z" fill="white"/>
</g>
<defs>
<clipPath id="clip0_304_302">
<rect width="236.8" height="51.2" fill="white" transform="translate(0 0.863647)"/>
</clipPath>
</defs>
</svg>
