<?xml version="1.0" encoding="UTF-8"?>
<svg width="112px" height="30px" viewBox="0 0 112 30" version="1.1" xmlns="http://www.w3.org/2000/svg" xmlns:xlink="http://www.w3.org/1999/xlink">
    <!-- Generator: Sketch 51.3 (57544) - http://www.bohemiancoding.com/sketch -->
    <title>-logo</title>
    <desc>Created with Sketch.</desc>
    <defs>
        <polygon id="path-1" points="0 0 111.818182 0 111.818182 30 0 30"></polygon>
    </defs>
    <g id="Page-1" stroke="none" stroke-width="1" fill="none" fill-rule="evenodd">
        <g id="loreal_d_pdp_colorista" transform="translate(-75.000000, -26.000000)">
            <g id="Desktop---Nav">
                <g id="-logo" transform="translate(75.000000, 26.000000)">
                    <mask id="mask-2" fill="white">
                        <use xlink:href="#path-1"></use>
                    </mask>
                    <g id="Clip-2"></g>
                    <path d="M14.5871291,17.221722 L2.25637909,17.221722 L2.25637909,2.74890264 L0,2.74890264 L0,18.9950478 L14.5871291,18.9950478 L14.5871291,17.221722 Z M12.10935,8.49566685 L15.1470027,2.74890264 L12.7024336,2.74890264 L10.4364382,8.49566685 L12.10935,8.49566685 Z M27.2037982,18.3493528 C22.6749382,18.3493528 18.9437891,14.6861002 18.9437891,10.2730445 C18.9437891,5.86471581 22.4997191,2.02633652 27.3783464,2.02633652 C32.1384464,2.02633652 35.6358955,5.86404052 35.6358955,10.2730445 C35.6364545,14.6861002 31.7307573,18.3493528 27.2037982,18.3493528 Z M27.2811764,0 C20.7369055,0 16.2760309,4.64423185 16.2760309,10.2682048 C16.2760309,16.1877321 21.2043055,20.3644344 27.2811764,20.3644344 C33.3576,20.3644344 38.2828555,16.2472707 38.2828555,10.2682048 C38.2828555,4.64423185 33.7664073,0 27.2811764,0 Z M51.0703827,10.2599887 L43.5360736,10.2599887 L43.5360736,4.67281936 L51.3343855,4.67281936 C53.12862,4.67281936 54.1387855,5.51626337 54.5027536,6.58716939 C54.7430509,7.32279122 54.5885182,8.28711311 54.1920109,8.94293754 C53.5398873,10.0300506 52.3019482,10.2599887 51.0703827,10.2599887 Z M53.00316,12.203489 C56.69931,11.2099043 57.0598118,8.43837929 57.0420327,7.45030951 C56.8206327,4.54777715 54.8790218,2.74890264 51.3864927,2.74890264 L41.2162936,2.74890264 L41.2162936,18.9950478 L43.5354027,18.9950478 L43.5354027,12.1814294 L50.1555982,12.1814294 L55.0263982,18.9950478 L57.9486548,18.9950478 C57.9497727,18.9950478 54.44595,14.4091165 53.00316,12.203489 Z M82.3195391,12.7568936 L86.1856527,4.99572313 L90.0995127,12.7568936 L82.3195391,12.7568936 Z M84.6132655,2.74890264 L76.4083827,18.9950478 L79.1813618,18.9950478 L81.2815309,14.7903208 L91.1222018,14.7903208 L93.2400382,18.9950478 L95.9847273,18.9950478 L87.7726882,2.74890264 L84.6132655,2.74890264 Z M111.818182,17.221722 L99.4874318,17.221722 L99.4874318,2.74890264 L97.2310527,2.74890264 L97.2310527,18.9950478 L111.818182,18.9950478 L111.818182,17.221722 Z M72.5104009,0.125717501 L68.3318673,0.125717501 L66.3771736,2.33438379 L72.5104009,0.125717501 Z M72.2866527,11.5435003 L72.2866527,9.74710186 L63.3083236,9.74710186 L63.3083236,4.51851435 L75.2626936,4.51851435 L75.2626936,2.74890264 L60.8323336,2.74890264 L60.8323336,18.9950478 L75.2626936,18.9950478 L75.2626936,17.221722 L63.3083236,17.221722 L63.3083236,11.5435003 L72.2866527,11.5435003 Z M64.7959527,29.7642093 L65.9534945,29.7642093 L65.9534945,25.1259426 L64.7959527,25.1259426 L64.7959527,29.7642093 Z M64.7889082,24.4391671 L65.9458909,24.4391671 L65.9458909,23.2746201 L64.7889082,23.2746201 L64.7889082,24.4391671 Z M73.6329436,26.304108 L71.1474491,25.8782217 C70.6385645,25.7888576 70.1171564,25.6072032 70.1171564,25.0555993 C70.1171564,24.0715813 71.3651591,23.9179516 72.10506,23.9179516 C73.0873827,23.9179516 74.2027691,24.2343275 74.2625918,25.2373663 L75.3662373,25.2373663 C75.3177082,24.5231289 75.0141218,23.1674733 71.9717727,23.1674733 C69.86277,23.1674733 68.9768345,24.1609454 68.9768345,25.1728756 C68.9768345,26.3034328 70.2621845,26.6013506 70.8321218,26.7001688 L72.6145036,27.0087788 C74.0442109,27.2612268 74.46912,27.4786719 74.46912,28.1558807 C74.46912,29.086888 73.0387418,29.2495217 72.1895945,29.2495217 C71.0740964,29.2495217 69.7894173,28.906359 69.7894173,27.7312324 L68.6857718,27.7312324 C68.6857718,28.3376477 68.8312473,28.8796849 69.5710364,29.3763647 C69.9585982,29.6378165 70.5894764,30 72.2014473,30 C73.6926545,30 75.6083236,29.5753517 75.6083236,28.0386044 C75.6088827,27.0093416 74.7596236,26.5030951 73.6329436,26.304108 Z M46.67481,27.133821 L48.2754873,24.277659 L48.30333,24.277659 L49.7786591,27.133821 L46.67481,27.133821 Z M47.5796427,23.3110861 L43.82121,29.8005627 L45.2136818,29.8005627 L46.2575045,27.9111986 L50.2662982,27.9111986 L51.2544355,29.8005627 L52.7304355,29.8005627 L49.1111045,23.3110861 L47.5796427,23.3110861 Z M56.1276955,26.3113112 L58.5545973,26.3113112 C59.6481791,26.3113112 60.3903164,26.021722 60.3903164,25.1455262 C60.3903164,24.3230163 59.6108318,24.0603264 58.6049155,24.0603264 L56.1276955,24.0603264 L56.1276955,26.3113112 Z M61.9311709,29.7535172 L60.5548009,29.7535172 L58.7138264,27.1206528 C58.69068,27.0867755 58.6458409,27.0694429 58.5995482,27.0611142 L58.65993,27.0611142 C58.6404736,27.0576252 58.6202345,27.0563872 58.5995482,27.0611142 L56.1276955,27.0611142 L56.1276955,29.7998875 L54.9080945,29.7998875 L54.9080945,23.3104108 L58.9687718,23.3104108 C60.6405655,23.3104108 61.6465936,24.0876759 61.6465936,25.1353967 C61.6465936,25.882386 61.1542582,26.7084975 59.8759527,26.9724254 L61.9311709,29.7535172 Z M40.4049409,26.3113112 L37.97871,26.3113112 L37.97871,24.0603264 L40.4552591,24.0603264 C41.4612873,24.0603264 42.24066,24.3230163 42.24066,25.1455262 C42.24066,26.021722 41.4985227,26.3113112 40.4049409,26.3113112 Z M40.8197864,23.3110861 L36.7591091,23.3110861 L36.7591091,29.8005627 L37.97871,29.8005627 L37.97871,27.0617895 L40.8197864,27.0617895 C42.7809655,27.0617895 43.4976082,26.0402926 43.4976082,25.1366348 C43.4976082,24.0883512 42.4921391,23.3110861 40.8197864,23.3110861 Z" id="Fill-1" fill="#FFFFFF" mask="url(#mask-2)"></path>
                </g>
            </g>
        </g>
    </g>
</svg>