<svg width="80" height="81" viewBox="0 0 80 81" fill="none" xmlns="http://www.w3.org/2000/svg">
<path d="M35.0013 32.2422L31.668 24.6089C30.668 22.1755 29.3346 20.5755 26.668 20.5755M26.668 20.5755H15.0013C9.3013 20.5755 6.66797 22.2422 6.66797 28.9089C6.94745 34.8881 9.30529 40.5823 13.3346 45.0089M26.668 20.5755C26.668 15.4089 27.468 7.24219 20.0013 7.24219C13.3346 7.24219 11.668 14.4755 11.668 20.5755M48.3346 45.5755L55.968 48.9089C58.4013 49.9089 60.0013 51.2422 60.0013 53.9089M60.0013 53.9089V65.5755C60.0013 71.2755 58.3346 73.9089 51.668 73.9089C45.6887 73.6294 39.9945 71.2715 35.568 67.2422M60.0013 53.9089C65.168 53.9089 73.3346 53.1089 73.3346 60.5755C73.3346 67.2422 66.1013 68.9089 60.0013 68.9089M15.3346 44.2755L34.6346 33.5755C40.9346 30.0755 50.6013 39.5089 47.0013 45.9422L36.268 65.3089C29.3346 77.7755 2.63464 51.3422 15.3346 44.2755Z" stroke="black" stroke-width="6.66667" stroke-linecap="round" stroke-linejoin="round"/>
</svg>
