<svg width="751" height="73" viewBox="0 0 751 73" fill="none" xmlns="http://www.w3.org/2000/svg">
<path d="M0.712001 72V4.8H4.84L36.04 58.656H33.832L64.936 4.8H68.968L69.064 72H64.264L64.168 12.192H65.512L36.04 63.072H33.64L4.072 12.192H5.512V72H0.712001ZM122.541 72V60.576L122.349 58.848V40.032C122.349 35.36 121.069 31.808 118.509 29.376C116.013 26.944 112.333 25.728 107.469 25.728C104.013 25.728 100.781 26.336 97.7733 27.552C94.8293 28.704 92.3013 30.208 90.1893 32.064L87.7893 28.608C90.2853 26.368 93.2933 24.64 96.8133 23.424C100.333 22.144 104.013 21.504 107.853 21.504C114.061 21.504 118.829 23.072 122.157 26.208C125.485 29.344 127.149 34.016 127.149 40.224V72H122.541ZM104.493 72.384C100.781 72.384 97.5493 71.808 94.7973 70.656C92.1093 69.44 90.0293 67.744 88.5573 65.568C87.1493 63.392 86.4453 60.896 86.4453 58.08C86.4453 55.52 87.0213 53.216 88.1733 51.168C89.3893 49.056 91.3733 47.36 94.1253 46.08C96.8773 44.736 100.557 44.064 105.165 44.064H123.597V47.808H105.261C100.077 47.808 96.4293 48.768 94.3173 50.688C92.2693 52.608 91.2453 55.008 91.2453 57.888C91.2453 61.088 92.4613 63.648 94.8932 65.568C97.3253 67.488 100.749 68.448 105.165 68.448C109.389 68.448 112.941 67.488 115.821 65.568C118.765 63.648 120.941 60.864 122.349 57.216L123.693 60.48C122.349 64.128 120.045 67.04 116.781 69.216C113.581 71.328 109.485 72.384 104.493 72.384ZM150.574 58.176L150.67 52.128L183.79 21.888H189.934L167.95 42.528L165.07 44.928L150.574 58.176ZM146.926 72V0.767996H151.726V72H146.926ZM186.094 72L164.206 44.544L167.47 40.992L192.046 72H186.094ZM221.747 72.384C216.691 72.384 212.211 71.296 208.307 69.12C204.467 66.944 201.427 63.936 199.187 60.096C197.011 56.256 195.923 51.872 195.923 46.944C195.923 41.952 196.947 37.568 198.995 33.792C201.107 29.952 203.987 26.944 207.635 24.768C211.283 22.592 215.379 21.504 219.923 21.504C224.467 21.504 228.531 22.56 232.115 24.672C235.763 26.784 238.611 29.76 240.659 33.6C242.771 37.376 243.827 41.76 243.827 46.752C243.827 46.944 243.795 47.168 243.731 47.424C243.731 47.616 243.731 47.84 243.731 48.096H199.475V44.352H241.139L239.219 46.176C239.283 42.272 238.451 38.784 236.723 35.712C235.059 32.576 232.787 30.144 229.907 28.416C227.027 26.624 223.699 25.728 219.923 25.728C216.211 25.728 212.883 26.624 209.939 28.416C207.059 30.144 204.787 32.576 203.123 35.712C201.459 38.784 200.627 42.304 200.627 46.272V47.136C200.627 51.232 201.523 54.88 203.315 58.08C205.171 61.216 207.699 63.68 210.899 65.472C214.099 67.2 217.747 68.064 221.843 68.064C225.043 68.064 228.019 67.488 230.771 66.336C233.587 65.184 235.955 63.424 237.875 61.056L240.659 64.224C238.483 66.912 235.731 68.96 232.403 70.368C229.139 71.712 225.587 72.384 221.747 72.384ZM302.532 72.48C297.54 72.48 292.804 71.648 288.324 69.984C283.908 68.256 280.484 66.048 278.052 63.36L280.26 59.712C282.564 62.08 285.7 64.096 289.668 65.76C293.7 67.36 297.956 68.16 302.436 68.16C306.916 68.16 310.564 67.584 313.38 66.432C316.26 65.216 318.372 63.616 319.716 61.632C321.124 59.648 321.828 57.44 321.828 55.008C321.828 52.128 321.06 49.824 319.524 48.096C317.988 46.368 315.972 44.992 313.476 43.968C310.98 42.944 308.26 42.08 305.316 41.376C302.372 40.672 299.396 39.936 296.388 39.168C293.38 38.336 290.628 37.28 288.132 36C285.636 34.72 283.62 32.992 282.084 30.816C280.612 28.576 279.876 25.696 279.876 22.176C279.876 18.976 280.708 16.032 282.372 13.344C284.036 10.656 286.628 8.48 290.148 6.816C293.668 5.152 298.18 4.32 303.684 4.32C307.396 4.32 311.044 4.864 314.628 5.952C318.276 7.04 321.38 8.512 323.94 10.368L322.116 14.304C319.3 12.384 316.26 10.976 312.996 10.08C309.796 9.12 306.692 8.64 303.684 8.64C299.396 8.64 295.844 9.248 293.028 10.464C290.212 11.68 288.132 13.312 286.788 15.36C285.444 17.344 284.772 19.584 284.772 22.08C284.772 24.96 285.508 27.264 286.98 28.992C288.516 30.72 290.532 32.096 293.028 33.12C295.524 34.144 298.276 35.008 301.284 35.712C304.292 36.416 307.268 37.184 310.212 38.016C313.156 38.784 315.876 39.808 318.372 41.088C320.868 42.368 322.884 44.096 324.42 46.272C325.956 48.448 326.724 51.264 326.724 54.72C326.724 57.856 325.86 60.8 324.132 63.552C322.404 66.24 319.748 68.416 316.164 70.08C312.644 71.68 308.1 72.48 302.532 72.48ZM361.416 72.384C356.616 72.384 352.328 71.296 348.552 69.12C344.84 66.944 341.864 63.936 339.624 60.096C337.448 56.256 336.36 51.872 336.36 46.944C336.36 41.952 337.448 37.568 339.624 33.792C341.864 29.952 344.84 26.944 348.552 24.768C352.328 22.592 356.616 21.504 361.416 21.504C366.216 21.504 370.504 22.592 374.28 24.768C378.056 26.944 381.032 29.952 383.208 33.792C385.384 37.568 386.472 41.952 386.472 46.944C386.472 51.872 385.384 56.256 383.208 60.096C381.032 63.936 378.056 66.944 374.28 69.12C370.504 71.296 366.216 72.384 361.416 72.384ZM361.416 68.064C365.256 68.064 368.712 67.2 371.784 65.472C374.856 63.68 377.256 61.184 378.984 57.984C380.712 54.784 381.576 51.104 381.576 46.944C381.576 42.72 380.712 39.04 378.984 35.904C377.256 32.704 374.856 30.24 371.784 28.512C368.712 26.72 365.256 25.824 361.416 25.824C357.576 25.824 354.12 26.72 351.048 28.512C348.04 30.24 345.64 32.704 343.848 35.904C342.12 39.04 341.256 42.72 341.256 46.944C341.256 51.104 342.12 54.784 343.848 57.984C345.64 61.184 348.04 63.68 351.048 65.472C354.12 67.2 357.576 68.064 361.416 68.064ZM402.324 72V14.208C402.324 10.048 403.508 6.72 405.876 4.224C408.308 1.664 411.764 0.383995 416.244 0.383995C418.1 0.383995 419.924 0.671995 421.716 1.248C423.508 1.76 424.98 2.56 426.132 3.648L424.212 7.296C423.252 6.336 422.1 5.632 420.756 5.184C419.412 4.736 417.972 4.512 416.436 4.512C413.364 4.512 411.028 5.376 409.428 7.10399C407.828 8.768 407.028 11.264 407.028 14.592V23.04L407.124 25.344V72H402.324ZM393.108 26.016V21.888H423.06V26.016H393.108ZM447.456 72.384C443.04 72.384 439.648 71.168 437.28 68.736C434.976 66.304 433.824 62.976 433.824 58.752V10.944H438.624V58.272C438.624 61.472 439.424 63.936 441.024 65.664C442.624 67.392 444.928 68.256 447.936 68.256C451.072 68.256 453.664 67.328 455.712 65.472L457.728 68.832C456.448 70.048 454.88 70.944 453.024 71.52C451.232 72.096 449.376 72.384 447.456 72.384ZM424.608 26.016V21.888H454.56V26.016H424.608ZM479.968 72L460.96 21.888H465.568L483.232 69.312H481.216L499.36 21.888H503.488L521.536 69.312H519.424L537.376 21.888H541.792L522.784 72H518.272L500.608 26.496H502.144L484.384 72H479.968ZM583.041 72V60.576L582.849 58.848V40.032C582.849 35.36 581.569 31.808 579.009 29.376C576.513 26.944 572.833 25.728 567.969 25.728C564.513 25.728 561.281 26.336 558.273 27.552C555.329 28.704 552.801 30.208 550.689 32.064L548.289 28.608C550.785 26.368 553.793 24.64 557.313 23.424C560.833 22.144 564.513 21.504 568.353 21.504C574.561 21.504 579.329 23.072 582.657 26.208C585.985 29.344 587.649 34.016 587.649 40.224V72H583.041ZM564.993 72.384C561.281 72.384 558.049 71.808 555.297 70.656C552.609 69.44 550.529 67.744 549.057 65.568C547.649 63.392 546.945 60.896 546.945 58.08C546.945 55.52 547.521 53.216 548.673 51.168C549.889 49.056 551.873 47.36 554.625 46.08C557.377 44.736 561.057 44.064 565.665 44.064H584.097V47.808H565.761C560.577 47.808 556.929 48.768 554.817 50.688C552.769 52.608 551.745 55.008 551.745 57.888C551.745 61.088 552.961 63.648 555.393 65.568C557.825 67.488 561.249 68.448 565.665 68.448C569.889 68.448 573.441 67.488 576.321 65.568C579.265 63.648 581.441 60.864 582.849 57.216L584.193 60.48C582.849 64.128 580.545 67.04 577.281 69.216C574.081 71.328 569.985 72.384 564.993 72.384ZM607.426 72V21.888H612.034V35.616L611.554 34.08C612.962 30.048 615.33 26.944 618.658 24.768C621.986 22.592 626.146 21.504 631.138 21.504V26.208C630.946 26.208 630.754 26.208 630.562 26.208C630.37 26.144 630.178 26.112 629.986 26.112C624.418 26.112 620.066 27.872 616.93 31.392C613.794 34.848 612.226 39.68 612.226 45.888V72H607.426ZM664.247 72.384C659.191 72.384 654.711 71.296 650.807 69.12C646.967 66.944 643.927 63.936 641.687 60.096C639.511 56.256 638.423 51.872 638.423 46.944C638.423 41.952 639.447 37.568 641.495 33.792C643.607 29.952 646.487 26.944 650.135 24.768C653.783 22.592 657.879 21.504 662.423 21.504C666.967 21.504 671.031 22.56 674.615 24.672C678.263 26.784 681.111 29.76 683.159 33.6C685.271 37.376 686.327 41.76 686.327 46.752C686.327 46.944 686.295 47.168 686.231 47.424C686.231 47.616 686.231 47.84 686.231 48.096H641.975V44.352H683.639L681.719 46.176C681.783 42.272 680.951 38.784 679.223 35.712C677.559 32.576 675.287 30.144 672.407 28.416C669.527 26.624 666.199 25.728 662.423 25.728C658.711 25.728 655.383 26.624 652.439 28.416C649.559 30.144 647.287 32.576 645.623 35.712C643.959 38.784 643.127 42.304 643.127 46.272V47.136C643.127 51.232 644.023 54.88 645.815 58.08C647.671 61.216 650.199 63.68 653.399 65.472C656.599 67.2 660.247 68.064 664.343 68.064C667.543 68.064 670.519 67.488 673.271 66.336C676.087 65.184 678.455 63.424 680.375 61.056L683.159 64.224C680.983 66.912 678.231 68.96 674.903 70.368C671.639 71.712 668.087 72.384 664.247 72.384ZM713.848 72.384C709.688 72.384 705.784 71.776 702.136 70.56C698.552 69.344 695.768 67.808 693.784 65.952L695.992 62.112C697.912 63.776 700.472 65.216 703.672 66.432C706.872 67.584 710.328 68.16 714.04 68.16C719.288 68.16 723.064 67.296 725.368 65.568C727.672 63.84 728.824 61.568 728.824 58.752C728.824 56.704 728.216 55.104 727 53.952C725.848 52.736 724.28 51.808 722.296 51.168C720.312 50.528 718.136 50.016 715.768 49.632C713.4 49.184 711.032 48.704 708.664 48.192C706.296 47.68 704.12 46.944 702.136 45.984C700.152 45.024 698.552 43.712 697.336 42.048C696.184 40.32 695.608 38.048 695.608 35.232C695.608 32.672 696.312 30.368 697.72 28.32C699.128 26.272 701.24 24.64 704.056 23.424C706.872 22.144 710.392 21.504 714.616 21.504C717.752 21.504 720.888 21.952 724.024 22.848C727.224 23.744 729.816 24.928 731.8 26.4L729.592 30.24C727.48 28.64 725.112 27.488 722.488 26.784C719.864 26.08 717.208 25.728 714.52 25.728C709.656 25.728 706.072 26.624 703.768 28.416C701.528 30.208 700.408 32.448 700.408 35.136C700.408 37.248 700.984 38.944 702.136 40.224C703.352 41.44 704.952 42.4 706.936 43.104C708.92 43.744 711.096 44.288 713.464 44.736C715.832 45.12 718.2 45.568 720.568 46.08C722.936 46.592 725.112 47.328 727.096 48.288C729.08 49.184 730.648 50.464 731.8 52.128C733.016 53.728 733.624 55.904 733.624 58.656C733.624 61.408 732.856 63.808 731.32 65.856C729.848 67.904 727.64 69.504 724.696 70.656C721.752 71.808 718.136 72.384 713.848 72.384Z" fill="white"/>
<path d="M746.444 72.384C745.356 72.384 744.396 72 743.564 71.232C742.796 70.4 742.412 69.408 742.412 68.256C742.412 67.104 742.796 66.144 743.564 65.376C744.396 64.608 745.356 64.224 746.444 64.224C747.532 64.224 748.46 64.608 749.228 65.376C750.06 66.144 750.476 67.104 750.476 68.256C750.476 69.408 750.06 70.4 749.228 71.232C748.46 72 747.532 72.384 746.444 72.384Z" fill="#FF6725"/>
</svg>
