<svg width="58" height="58" viewBox="0 0 58 58" fill="none" xmlns="http://www.w3.org/2000/svg">
<path d="M11.496 0.5H45.984V6.248H11.496V0.5ZM5.748 11.996V6.248H11.496V11.996H5.748ZM5.748 46.484V11.996H0V46.484H5.748ZM11.496 52.232V46.484H5.748V52.232H11.496ZM45.984 52.232V57.98H11.496V52.232H45.984ZM51.732 46.484V52.232H45.984V46.484H51.732ZM51.732 11.996H57.48V46.484H51.732V11.996ZM51.732 11.996V6.248H45.984V11.996H51.732ZM25.866 9.122H31.614V14.87H40.236V20.618H22.992V26.366H40.236V43.61H31.614V49.358H25.866V43.61H17.244V37.862H34.488V32.114H17.244V14.87H25.866V9.122Z" fill="white"/>
</svg>
