<svg width="58" height="35" viewBox="0 0 58 35" fill="none" xmlns="http://www.w3.org/2000/svg">
<path d="M34.488 0H57.48V22.992H51.732V11.496H45.984V5.748H34.488V0ZM40.236 17.244V11.496H45.984V17.244H40.236ZM34.488 22.992V17.244H40.236V22.992H34.488ZM28.74 22.992H34.488V28.74H28.74V22.992ZM22.992 17.244H28.74V22.992H22.992V17.244ZM17.244 17.244V11.496H22.992V17.244H17.244ZM11.496 22.992V17.244H17.244V22.992H11.496ZM5.748 28.74V22.992H11.496V28.74H5.748ZM5.748 28.74V34.488H0V28.74H5.748Z" fill="white"/>
</svg>
